<svg xmlns="http://www.w3.org/2000/svg" viewBox="0 0 400 400"><defs><style>.cls-1{fill:#575452;}.cls-2{fill:#312e2b;}.cls-3{fill:#797675;}.cls-4{fill:#464342;}</style></defs><g id="Layer_1" data-name="Layer 1"><path class="cls-1" d="M268.46,304.42c-14.79-2.17-35.89-3.14-68.44-3.14s-53.65,1-68.49,3.14l-3.83.57L71,169.55c-13.57-2.6-23.8-14.42-23.8-28.15,0-15.83,13.21-28.7,29.45-28.7s29.44,12.87,29.44,28.7a27.69,27.69,0,0,1-3.56,13.65l34.92,39.09L142.13,108a30.12,30.12,0,0,1-19.5-28.1c0-16.73,13.94-30.34,31.09-30.34s31.13,13.61,31.13,30.34a29.94,29.94,0,0,1-12,23.81L200,178.76l27.11-75a30,30,0,0,1-12-23.86c0-16.73,14-30.34,31.14-30.34s31.14,13.61,31.14,30.34A30.2,30.2,0,0,1,257.87,108l4.76,86.17,34.87-39.08a27.69,27.69,0,0,1-3.56-13.65c0-15.83,13.21-28.7,29.44-28.7s29.45,12.87,29.45,28.7A28.69,28.69,0,0,1,329,169.56L272.3,305Z"/><path class="cls-2" d="M246.28,54.52c14.43,0,26.15,11.32,26.15,25.35,0,11.82-8.43,21.75-19.76,24.5l5.64,102.1,45.46-50.95a23,23,0,0,1-4.84-14.12c0-13.08,10.93-23.71,24.45-23.71s24.46,10.63,24.46,23.71c0,12.37-9.78,22.55-22.31,23.6L269.19,299.49c-16-2.35-38.23-3.2-69.17-3.2s-53.19.85-69.21,3.2L74.47,165C62,164,52.16,153.77,52.16,141.4c0-13.08,11-23.71,24.46-23.71s24.45,10.63,24.45,23.71a23,23,0,0,1-4.84,14.12l45.51,50.95,5.59-102.1a25.39,25.39,0,0,1-19.71-24.5c0-14,11.67-25.35,26.1-25.35s26.14,11.32,26.14,25.35a25,25,0,0,1-13,21.8L200,193.44l33.14-91.72a25.07,25.07,0,0,1-13-21.85c0-14,11.72-25.35,26.14-25.35m0-10c-19.92,0-36.12,15.85-36.12,35.34a34.93,34.93,0,0,0,11.1,25.43L200,164.08l-21.28-58.83a34.85,34.85,0,0,0,11.1-25.38c0-19.49-16.2-35.34-36.12-35.34s-36.08,15.85-36.08,35.34A35,35,0,0,0,137,111.13l-3.87,70.68-24.63-27.58a32.72,32.72,0,0,0,2.59-12.83c0-18.58-15.45-33.69-34.43-33.69S42.18,122.82,42.18,141.4a33.14,33.14,0,0,0,9.23,22.92,34.46,34.46,0,0,0,15.94,9.51L121.6,303.34l3,7.14,7.66-1.12c14.58-2.13,35.48-3.09,67.76-3.09s53.18,1,67.72,3.09l7.66,1.13,3-7.15,54.25-129.5a34.48,34.48,0,0,0,16-9.52,33.2,33.2,0,0,0,9.2-22.92c0-18.58-15.45-33.69-34.44-33.69S289,122.82,289,141.4a32.68,32.68,0,0,0,2.59,12.83l-24.6,27.57L263,111.11a35.08,35.08,0,0,0,19.37-31.24c0-19.49-16.2-35.34-36.13-35.34Z"/><path class="cls-3" d="M85.56,119.33S73.68,115.89,63,129c-10.08,12.38-7.28,24-7,25.16a22.88,22.88,0,0,1-3.84-12.73c0-13.12,10.92-23.75,24.4-23.75A24.32,24.32,0,0,1,85.56,119.33Z"/><path class="cls-3" d="M163.27,56.28s-12.69-3.68-24.1,10.29c-10.78,13.23-7.79,25.65-7.47,26.88a24.51,24.51,0,0,1-4.11-13.6c0-14,11.68-25.39,26.08-25.39A25.67,25.67,0,0,1,163.27,56.28Z"/><path class="cls-3" d="M332.31,119.33s-11.87-3.44-22.55,9.63c-10.08,12.38-7.29,24-7,25.16a22.88,22.88,0,0,1-3.84-12.73c0-13.12,10.93-23.75,24.4-23.75A24.32,24.32,0,0,1,332.31,119.33Z"/><path class="cls-3" d="M255.83,56.28s-12.7-3.68-24.11,10.29C221,79.8,223.93,92.22,224.25,93.45a24.5,24.5,0,0,1-4.1-13.6c0-14,11.68-25.39,26.08-25.39A25.75,25.75,0,0,1,255.83,56.28Z"/><path class="cls-4" d="M124,186.61c-2.14-1.65-36.72-28.05-36.72-37.48,0-9.68,7-13,7-18.46,0-5-4.34-9-4.89-9.48a23.43,23.43,0,0,1,11.73,20.21,23,23,0,0,1-4.84,14.12Z"/><path class="cls-4" d="M160.35,95.93c0-14.17,12.08-21.15,12.08-28,0-4.64-1.4-6.89-2.3-7.79a24.8,24.8,0,0,1-3.29,41.52l19.71,54.5S160.35,110.11,160.35,95.93Z"/><path class="cls-4" d="M252.67,104.37l4.79,86.48c-.45-2.2-13.82-72.36-13.82-87.43,0-15.27,19.91-28.79,19.91-35.83,0-6-2.34-8.38-3-8.93a25.09,25.09,0,0,1,11.87,21.21C272.43,91.69,264,101.62,252.67,104.37Z"/><path class="cls-4" d="M347.84,141.4c0,12.37-9.78,22.55-22.31,23.6L269.19,299.49c-16-2.35-38.23-3.2-69.17-3.2-9.33,0-17.86,0-25.65.25,2-.3,45.07-6.93,81-42.91,36.87-36.83,60.18-93.87,60.18-93.87s26.45-4.44,26.45-23.9a21.52,21.52,0,0,0-4.84-14A23.56,23.56,0,0,1,347.84,141.4Z"/><path class="cls-1" d="M85,360.52v-5c0-19.79.53-33.52,7.66-43.56l.07-.1c.07-.11.18-.28.34-.49l.23-.35.08-.11c.14-.19.3-.38.47-.57a4.14,4.14,0,0,1,.4-.51l.08-.11a9.89,9.89,0,0,1,.86-1c.11-.11.25-.25.42-.4A16.1,16.1,0,0,1,97,307a24.53,24.53,0,0,1,2.17-1.87c.47-.36,1-.76,1.63-1.16.41-.29.83-.55,1.26-.82l.53-.34c.53-.31,1.11-.63,1.69-.95,1.2-.65,2.33-1.15,3.42-1.62l.7-.31.11,0c.63-.24,1.26-.49,1.93-.73s1.26-.48,1.81-.66l.27-.09a98.83,98.83,0,0,1,10.46-2.7c2.75-.51,5-.88,7.18-1.19C145.42,292.3,167,291.3,200,291.3s54.61,1,69.9,3.25c2.47.35,4.86.76,7.26,1.25l.12,0c.23.06.47.1.71.14l1.21.25.68.16c2.48.54,4.7,1.19,6.17,1.64l.87.28c.55.18,1.1.36,1.6.54,7.59,2.56,13.31,6.19,17.36,11H306l.93,1.28c.15.19.29.39.43.59l.18.26C315,322.62,315,337.87,315,355.53v5Z"/><path class="cls-2" d="M200,296.29c30.94,0,53.2.85,69.17,3.2,2.49.35,4.79.75,7,1.19.64.15,1.34.25,1.94.4l.65.15c2.1.45,4,1,5.84,1.55.75.25,1.55.5,2.25.75,7.53,2.54,12.57,6,16,10.48a3.28,3.28,0,0,1,.6.85h.05c6.29,9,6.54,22,6.54,40.67H90c0-18.72.4-31.74,6.74-40.67a5.24,5.24,0,0,1,.4-.55c.1-.15.15-.25.25-.4s.34-.4.49-.6a.69.69,0,0,1,.15-.2c.25-.3.45-.6.7-.85a2.5,2.5,0,0,1,.4-.35,9.16,9.16,0,0,1,1.25-1.24,18.25,18.25,0,0,1,1.8-1.55c.45-.35.94-.7,1.39-1s1-.65,1.55-1,1-.6,1.6-.9c1.09-.59,2.29-1.09,3.54-1.64.65-.25,1.3-.5,2-.75a18.88,18.88,0,0,1,1.79-.65,91.52,91.52,0,0,1,9.88-2.55c2.15-.39,4.44-.79,6.89-1.14,16-2.35,38.23-3.2,69.21-3.2m0-10c-33.28,0-55.07,1-70.66,3.3-2.21.32-4.53.71-7.26,1.21l-.08,0h-.08a102.71,102.71,0,0,0-11,2.83l0,0h0l-.26.09c-.55.18-1.28.42-2.06.74l-1.91.72-.21.09-.22.09-.58.26c-1.13.49-2.42,1.05-3.72,1.76-.61.33-1.29.7-2,1.1l-.11.07-.11.07-.38.24c-.43.27-.9.57-1.43.93-.69.47-1.32.92-1.88,1.36a29.14,29.14,0,0,0-2.52,2.15c-.41.37-.92.84-1.46,1.43-.18.16-.31.29-.41.39a15.1,15.1,0,0,0-1.27,1.46c-.17.2-.32.39-.47.59s-.34.41-.55.68l-.15.21-.15.22-.13.2c-.14.19-.27.37-.37.54-8,11.24-8.57,25.68-8.57,46.43v10H320v-10c0-18.5,0-34.48-8.34-46.4l-3-4.25h-.54c-4.49-4.66-10.42-8.21-18-10.78-.53-.19-1.1-.37-1.67-.56l-.69-.23-.12,0-.12,0c-1.54-.47-3.87-1.16-6.5-1.73l-.72-.17c-.52-.12-1-.2-1.37-.28l-.52-.1-.12,0-.12,0c-2.48-.51-5-.94-7.57-1.3-15.53-2.28-37.3-3.3-70.59-3.3Z"/><path class="cls-3" d="M303.47,314.86h-.05c-1.49-.3-32.18-6.44-103.4-6.44-73,0-103.29,6.44-103.29,6.44a5.24,5.24,0,0,1,.4-.55c.25-.35.49-.7.74-1a.69.69,0,0,1,.15-.2c.35-.4.7-.8,1.1-1.2a9.16,9.16,0,0,1,1.25-1.24,18.25,18.25,0,0,1,1.8-1.55c.45-.35.94-.7,1.39-1s1-.65,1.55-1,1-.6,1.6-.9c1.09-.59,2.29-1.09,3.54-1.64.65-.25,1.3-.5,2-.75a18.88,18.88,0,0,1,1.79-.65,91.52,91.52,0,0,1,9.88-2.55c2.15-.39,4.44-.79,6.89-1.14,16-2.35,38.23-3.2,69.21-3.2s53.2.85,69.17,3.2c2.49.35,4.79.75,7,1.19.64.15,1.34.25,1.94.4l.65.15c2.1.45,4,1,5.84,1.55.75.25,1.55.5,2.25.75,7.53,2.54,12.57,6,16,10.48A5.46,5.46,0,0,1,303.47,314.86Z"/></g></svg>