<svg xmlns="http://www.w3.org/2000/svg" viewBox="0 0 400 400"><defs><style>.cls-1{fill:#f9f9f9;}.cls-2{fill:#575452;}.cls-3{fill:#d4d4d4;}.cls-4{fill:none;}</style></defs><g id="Layer_1" data-name="Layer 1"><path class="cls-1" d="M132.46,300.1a5,5,0,0,1-3.62-1.55l-58-61.06c-1.72-1.68-20.3-20.51-20.3-49.87,0-48.62,36.82-74.85,71.46-74.85a116.78,116.78,0,0,1,52.55,12.35L179.16,99h-22a5,5,0,0,1-5-5V63a5,5,0,0,1,5-5h23V37.11a5,5,0,0,1,5-5h29.7a5,5,0,0,1,5,5V58h23a5,5,0,0,1,5,5V94a5,5,0,0,1-5,5h-22l4.58,26.13A116.78,116.78,0,0,1,278,112.77c34.65,0,71.46,26.23,71.46,74.85,0,29.36-18.58,48.19-20.3,49.87l-58,61.06a5,5,0,0,1-3.62,1.55,5.31,5.31,0,0,1-.68-.05c-14.69-2-35.32-2.94-66.89-2.94s-52.1.91-66.83,2.94A5.31,5.31,0,0,1,132.46,300.1ZM231,239.41a19.39,19.39,0,0,0,8.59,1.66,17.86,17.86,0,0,0,12.17-5l27.54-27.9c.24-.25,6.05-6.47,6.05-19.9a15.34,15.34,0,0,0-.11-1.82c-.08-.59-.16-1.12-.28-1.67a6.67,6.67,0,0,0-.22-.81,4.46,4.46,0,0,1-.24-.73,3.41,3.41,0,0,0-.22-.62,3.76,3.76,0,0,1-.2-.46c0-.09-.09-.19-.12-.27a7.74,7.74,0,0,0-.43-.88,16,16,0,0,0-3-3.88,1.8,1.8,0,0,1-.19-.2,17.24,17.24,0,0,0-1.49-1.28,25.73,25.73,0,0,0-3.87-2.38,10.91,10.91,0,0,0-1.11-.47,5,5,0,0,1-.53-.23l-.33-.16-.36-.14c-.16-.07-.54-.18-.85-.28a4,4,0,0,1-.49-.17,6,6,0,0,0-1.08-.33l-.53-.14-.18-.06a3.61,3.61,0,0,1-.57-.12,12.25,12.25,0,0,0-1.92-.4l-.35-.05-.34-.05c-.89-.16-1.93-.29-3-.38s-2.18-.14-3.33-.14c-12.84,0-24.75,8.41-29,11.77Zm-90.87-69.26c-14.92,0-25.35,7.45-25.35,18.12a16.42,16.42,0,0,0,.06,1.83c0,.13,0,.26,0,.39.54,11.9,5.73,17.45,6,17.68l14.52,14.72,13.05,13.21a17.85,17.85,0,0,0,12.14,5,19.39,19.39,0,0,0,8.59-1.66V181.93C164.83,178.58,152.86,170.15,140.09,170.15Z"/><path class="cls-2" d="M214.85,37.11V63h28V94h-28l6.83,39s22.36-15.22,56.24-15.22,66.47,26.1,66.47,69.86c0,28.34-18.86,46.36-18.86,46.36l-58,61.13c-15.82-2.2-37.62-3-67.57-3s-51.64.79-67.51,3L74.42,234s-18.86-18-18.86-46.36c0-43.76,32.58-69.86,66.47-69.86S178.27,133,178.27,133l6.83-39h-28V63h28V37.11h29.7m24.7,209a22.93,22.93,0,0,0,15.82-6.59l27.44-27.8s7.49-7.43,7.49-23.4a19.54,19.54,0,0,0-.15-2.45c-.1-.75-.2-1.39-.35-2.09a12.27,12.27,0,0,0-.4-1.45.38.38,0,0,0-.1-.25,8,8,0,0,0-.6-1.65,2.44,2.44,0,0,0-.15-.35,13.69,13.69,0,0,0-.7-1.44,20.49,20.49,0,0,0-3.89-5,20,20,0,0,0-2.09-1.85,31,31,0,0,0-4.7-2.89,15.25,15.25,0,0,0-1.64-.7,7.08,7.08,0,0,0-.9-.4,12.34,12.34,0,0,0-1.45-.5,11.27,11.27,0,0,0-1.94-.6,5.85,5.85,0,0,0-1-.25,17.25,17.25,0,0,0-2.7-.55.74.74,0,0,0-.35-.05c-1.09-.2-2.29-.35-3.49-.45s-2.44-.15-3.74-.15c-18.07,0-34,14.43-34,14.43V242s3.8,4.05,13.58,4.05m-79.05,0c9.78,0,13.58-4.05,13.58-4.05V179.59s-15.92-14.43-34-14.43-30.34,9.73-30.34,23.11a19.43,19.43,0,0,0,.1,2.44c.65,14.28,7.39,21,7.39,21l14.52,14.72,12.92,13.08a22.93,22.93,0,0,0,15.82,6.59M214.85,27.13h-29.7a10,10,0,0,0-10,10V53H157.11a10,10,0,0,0-10,10V94a10,10,0,0,0,10,10h16.11l-2.43,13.86A123.11,123.11,0,0,0,122,107.78a76.61,76.61,0,0,0-52.89,21.33C54,143.83,45.58,164.61,45.58,187.62c0,30.86,19.29,50.94,21.72,53.36l57.92,61a10,10,0,0,0,7.24,3.11,10.35,10.35,0,0,0,1.36-.09c14.5-2,34.9-2.9,66.15-2.9s51.75.89,66.2,2.9a10.62,10.62,0,0,0,1.37.09,10,10,0,0,0,7.24-3.11l57.92-61c2.43-2.42,21.72-22.5,21.72-53.36,0-23-8.37-43.79-23.56-58.51A76.61,76.61,0,0,0,278,107.78a123.11,123.11,0,0,0-48.76,10.06L226.78,104h16.11a10,10,0,0,0,10-10V63a10,10,0,0,0-10-10H224.83V37.11a10,10,0,0,0-10-10ZM236,184.41c4.81-3.48,14.27-9.27,24-9.27,1,0,2,0,2.91.12s1.8.19,2.54.32c.18,0,.36.06.55.09l.48.06a7.36,7.36,0,0,1,1.13.25q.38.11.75.18c.27.08.55.15.82.21l.2,0a8.8,8.8,0,0,0,1,.35l.41.13.3.12h0a8.28,8.28,0,0,0,1.06.46l.59.24a20.92,20.92,0,0,1,3.05,1.87c.35.28.75.6.9.75l.36.37a10.94,10.94,0,0,1,2.05,2.61l.06.11.16.3c0,.14.11.27.17.4s.13.31.2.46a10,10,0,0,0,.34,1.06l0,.06s0,.07,0,.1c.07.33.13.69.21,1.28a8.76,8.76,0,0,1,.07,1.17c0,10.81-4.25,16-4.69,16.47l-27.36,27.72c-.15.15-.12.1-.21.2a12.94,12.94,0,0,1-8.51,3.42,20.54,20.54,0,0,1-3.6-.3V184.41ZM124.42,204.74c-.4-.46-4.17-5-4.6-14.48a7.23,7.23,0,0,0-.07-.79c0-.19,0-.77,0-1.2,0-7.73,8.37-13.13,20.36-13.13,9.72,0,19.19,5.79,24,9.27v51.37a20.54,20.54,0,0,1-3.6.3,12.94,12.94,0,0,1-8.51-3.42l-.21-.21-12.92-13.07-14.44-14.64Zm151.3-.1,0,0h0l0,0Zm-151.43,0h0l0,0,0,0Z"/><polygon class="cls-3" points="214.85 37.11 214.85 63.01 209.36 68.5 209.36 42.6 214.85 37.11"/><polygon class="cls-3" points="157.11 94 185.1 94 186.07 88.51 162.6 88.51 157.11 94"/><polygon class="cls-3" points="242.89 63.01 242.89 94 214.9 94 213.95 88.51 237.4 88.51 237.4 68.5 242.89 63.01"/><path class="cls-3" d="M344.44,187.62c0,28.34-18.86,46.36-18.86,46.36l-58,61.13c-6.63-.9-14.32-1.6-23.2-2.1,2-1.89,62.63-58.78,75.75-71.91,13.37-13.37,20.06-30.29,20.06-46.8,0-15.57-12.72-33.79-14.32-36C337.16,150.14,344.44,166.91,344.44,187.62Z"/><line class="cls-4" x1="287.74" y1="168.92" x2="287.69" y2="168.97"/><path class="cls-3" d="M174.07,195V179.6s-15.92-14.42-34-14.42-30.34,9.73-30.34,23.11a19.59,19.59,0,0,0,.1,2.44c.65,14.27,7.39,21,7.39,21l14.52,14.72,12.92,13.08A22.89,22.89,0,0,0,158.35,246c-16.62-1.14-30.74-15.22-30.74-15.22L113,215.88c-.85-.8-8.39-8.73-9.14-24.9a19.7,19.7,0,0,1-.1-2.69c0-16.87,15.27-29.1,36.33-29.1,20.16,0,37.28,15.32,38,16l1.94,1.8Z"/><path class="cls-3" d="M290.29,188.29a19.54,19.54,0,0,0-.15-2.45c-.1-.75-.2-1.4-.35-2.09a12.27,12.27,0,0,0-.4-1.45.38.38,0,0,0-.1-.25,8,8,0,0,0-.6-1.65,2.44,2.44,0,0,0-.15-.35,12,12,0,0,0-.7-1.44,20.49,20.49,0,0,0-3.89-5,20,20,0,0,0-2.09-1.85,31.46,31.46,0,0,0-4.69-2.9,16.31,16.31,0,0,0-1.65-.69,7.08,7.08,0,0,0-.9-.4,12.34,12.34,0,0,0-1.45-.5,11,11,0,0,0-1.94-.6,5.85,5.85,0,0,0-1-.25,17.25,17.25,0,0,0-2.7-.55.74.74,0,0,0-.35-.05c-1.09-.2-2.29-.35-3.49-.45s-2.44-.15-3.74-.15c-18.07,0-34,14.42-34,14.42V242s3.79,4,13.57,4c-14.12,0-19.56-1.69-19.56-1.69V177l1.94-1.8c.75-.65,17.87-16,38-16,11.48,0,21.26,3.65,27.74,9.78C287.69,169,290.29,172.42,290.29,188.29Z"/><path class="cls-1" d="M89.94,356.34a5,5,0,0,1-5-5c0-19.79.53-33.52,7.66-43.56l.07-.1a5.25,5.25,0,0,1,.34-.48,2.36,2.36,0,0,1,.15-.25l.16-.22c.14-.19.3-.38.47-.57s.28-.37.4-.51l.08-.1a11.06,11.06,0,0,1,.86-1c.11-.11.25-.25.42-.4a17.81,17.81,0,0,1,1.34-1.31A23,23,0,0,1,99.07,301c.47-.37,1-.76,1.63-1.17.42-.29.84-.56,1.29-.84l.5-.31c.54-.33,1.13-.65,1.72-1,1.17-.64,2.3-1.13,3.39-1.61l.81-.35,1.93-.73c.64-.27,1.26-.47,1.8-.65l.28-.09a94.21,94.21,0,0,1,10.46-2.7c2.71-.51,4.94-.88,7.09-1.19.69-.12,1.37-.18,1.91-.23h0c15.2-2.09,36.2-3,68.08-3s53,.93,68.14,3a17.11,17.11,0,0,1,1.85.24c2.46.34,4.81.75,7.17,1.23l.12,0c.23.06.47.1.71.15.42.08.82.16,1.2.25s.48.1.69.16c2.48.53,4.71,1.18,6.17,1.63l.81.27,1.66.55c8.06,2.72,14,6.64,18.1,12a7.69,7.69,0,0,1,.77,1l.15.2C315,318.45,315,333.69,315,351.35a5,5,0,0,1-5,5Z"/><path class="cls-2" d="M200,292.12c29.94,0,51.74.79,67.56,3a15.53,15.53,0,0,1,1.6.2c2.49.35,4.79.75,7,1.2.65.15,1.34.25,1.94.4l.65.15c2.1.45,4,1,5.84,1.54.75.25,1.55.5,2.25.75,7.53,2.55,12.57,6,16,10.48a3.28,3.28,0,0,1,.6.85h.05c6.29,9,6.54,22,6.54,40.67h-220c0-18.71.4-31.74,6.74-40.67a5.24,5.24,0,0,1,.4-.55c.1-.15.15-.25.25-.4s.34-.4.49-.6a.69.69,0,0,1,.15-.2c.25-.3.45-.6.7-.85a3,3,0,0,1,.4-.34,9.84,9.84,0,0,1,1.25-1.25,18.25,18.25,0,0,1,1.8-1.55c.45-.35.94-.7,1.39-1s1-.65,1.55-1,1-.59,1.6-.89c1.1-.6,2.29-1.1,3.54-1.65.65-.25,1.3-.5,2-.75A18.88,18.88,0,0,1,114,299a91.63,91.63,0,0,1,9.88-2.54c2.15-.4,4.45-.8,6.89-1.15.55-.1,1.15-.15,1.7-.2,15.87-2.2,37.62-3,67.52-3m0-10c-32,0-53.24.94-68.65,3.05-.58.05-1.32.12-2.14.26-2.2.32-4.48.7-7.14,1.2l-.16,0a100.42,100.42,0,0,0-11,2.82l-.09,0-.26.09c-.55.18-1.28.42-2.06.75l-1.91.72-.43.17-.58.26c-1.13.49-2.42,1.05-3.72,1.76-.6.33-1.28.7-1.95,1.11l-.23.13-.38.24c-.42.27-.9.57-1.43.94-.69.46-1.32.91-1.87,1.34a27.71,27.71,0,0,0-2.52,2.16A18.81,18.81,0,0,0,92,300.63c-.18.16-.31.3-.41.4a13,13,0,0,0-1.27,1.46c-.17.19-.32.39-.47.59s-.34.4-.54.66-.22.3-.32.46l-.12.19c-.14.19-.26.36-.37.53-8,11.24-8.57,25.69-8.57,46.43a10,10,0,0,0,10,10H310a10,10,0,0,0,10-10c0-18.5,0-34.48-8.34-46.39l-.16-.23a14.16,14.16,0,0,0-1-1.31c-4.69-6-11.36-10.44-20.36-13.5l-1.67-.56-.7-.23-.23-.07c-1.54-.47-3.87-1.15-6.5-1.73l-.72-.16c-.52-.12-1-.21-1.37-.28l-.52-.11-.24,0c-2.42-.5-4.83-.91-7.37-1.27-.78-.14-1.48-.21-2.08-.27-15.37-2.11-36.58-3.05-68.7-3.05Z"/></g></svg>