<svg xmlns="http://www.w3.org/2000/svg" viewBox="0 0 400 400"><defs><style>.cls-1{fill:#f9f9f9;}.cls-2{fill:#575452;}.cls-3{fill:#d4d4d4;}</style></defs><g id="Layer_1" data-name="Layer 1"><path class="cls-1" d="M276.13,301.52a4.75,4.75,0,0,1-1-.1c-14.91-3-37.39-4.29-75.17-4.29s-60.15,1.27-75.12,4.25a5.41,5.41,0,0,1-1,.09,5,5,0,0,1-5-5.5l14.47-139.88a5,5,0,0,1,5-4.48A128.64,128.64,0,0,0,154,150.38,365.17,365.17,0,0,1,200,147.62a365.11,365.11,0,0,1,46,2.76,128.33,128.33,0,0,0,15.65,1.23,5,5,0,0,1,5,4.48L281.09,296a5,5,0,0,1-5,5.5Z"/><path class="cls-2" d="M200,152.61c38.07.2,47.3,4,61.62,4l14.53,139.93c-16.32-3.29-40.42-4.39-76.15-4.39s-59.79,1.1-76.11,4.34L138.35,156.6c14.32,0,23.6-3.79,61.63-4m0-10h-.05a370.42,370.42,0,0,0-46.49,2.79,125.14,125.14,0,0,1-15.08,1.2,10,10,0,0,0-9.93,9L114,295.45a10,10,0,0,0,11.87,10.82c14.63-2.91,36.81-4.15,74.16-4.15s59.61,1.25,74.17,4.19a9.5,9.5,0,0,0,2,.2,10,10,0,0,0,9.92-11L271.53,155.57a10,10,0,0,0-9.93-8.95,123.9,123.9,0,0,1-15.06-1.19,367.52,367.52,0,0,0-46.51-2.8Z"/><path class="cls-3" d="M276.14,296.53a198.81,198.81,0,0,0-25.85-3.14s.25-72.46-28.85-106.54-84.18-19.72-84.18-19.72l1.1-10.53c14.32,0,23.6-3.79,61.63-4,38.07.2,47.3,4,61.62,4Z"/><path class="cls-1" d="M90,356.36a5,5,0,0,1-5-5c0-31.41,0-52.17,37.89-59.78,15.66-3.11,38.71-4.44,77.08-4.44s61.55,1.34,77.14,4.49C315,299.19,315,320,315,351.37a5,5,0,0,1-5,5Z"/><path class="cls-2" d="M200,292.14c35.73,0,59.83,1.1,76.15,4.39,33,6.59,33.88,22,33.88,54.84H90c0-32.83.85-48.25,33.88-54.89,16.32-3.24,40.42-4.34,76.11-4.34m0-10c-38.73,0-62.07,1.35-78,4.53-19.18,3.86-30.38,10.95-36.33,23C80.4,320.2,80,333,80,351.37a10,10,0,0,0,10,10H310a10,10,0,0,0,10-10c0-18.35-.39-31.17-5.59-41.68-5.95-12.05-17.15-19.12-36.32-22.95-16.13-3.25-38.76-4.58-78.1-4.58Z"/><path class="cls-1" d="M261.6,161.59a135.3,135.3,0,0,1-16.82-1.3A354.92,354.92,0,0,0,200,157.6a350.69,350.69,0,0,0-44.76,2.69,135.76,135.76,0,0,1-16.84,1.3c-27.53,0-32.66-25.27-32.84-75a11.34,11.34,0,0,1,5.18-9.6c5.3-3.42,13.35-5.3,23.93-5.59h.23a8.54,8.54,0,0,1,8.23,6.32l8.09,30.21a50.51,50.51,0,0,0,9.33.91,60,60,0,0,0,9.73-.88l3.47-34.61a7.54,7.54,0,0,1,5.43-6.53c4-1.16,11-1.75,20.84-1.75s16.91.59,20.89,1.75a7.56,7.56,0,0,1,5.44,6.55l3.43,34.59a60.5,60.5,0,0,0,9.77.88,50.7,50.7,0,0,0,9.33-.91l8-30.2a8.53,8.53,0,0,1,8.23-6.33h.23c10.59.29,18.65,2.17,24,5.6a11.33,11.33,0,0,1,5.19,9.61C294.31,136.33,289.17,161.59,261.6,161.59Z"/><path class="cls-2" d="M200,70c11.89,0,17.18.88,19.49,1.55a2.58,2.58,0,0,1,1.86,2.25l3.8,38.27a67.75,67.75,0,0,0,14.37,1.7,53.48,53.48,0,0,0,13.37-1.7L261.69,79a3.56,3.56,0,0,1,3.41-2.63h.09c12,.33,18.28,2.79,21.41,4.8a6.43,6.43,0,0,1,2.9,5.4c-.19,51.44-5.82,70.05-27.9,70.05-14.32,0-23.55-3.79-61.62-4-38,.2-47.31,4-61.63,4-22.08,0-27.66-18.61-27.85-70.06a6.42,6.42,0,0,1,2.89-5.39c3.12-2,9.36-4.47,21.37-4.8h.09A3.56,3.56,0,0,1,138.26,79l8.87,33.12a53.48,53.48,0,0,0,13.37,1.7,67,67,0,0,0,14.32-1.7l3.85-38.28a2.56,2.56,0,0,1,1.85-2.24C182.82,70.9,188.09,70,200,70m0-10c-10.49,0-17.77.64-22.25,1.94a12.53,12.53,0,0,0-9,10.83l-3.09,30.71a49,49,0,0,1-5.15.29,44.74,44.74,0,0,1-5.35-.34L147.9,76.39a13.53,13.53,0,0,0-13.05-10h-.36c-11.51.32-20.43,2.47-26.51,6.39a16.29,16.29,0,0,0-7.46,13.81c.11,29.37,2,46.12,6.36,57.81,5.55,14.74,16.14,22.2,31.47,22.2a143.55,143.55,0,0,0,17.43-1.33,345,345,0,0,1,44.2-2.66,344.82,344.82,0,0,1,44.21,2.66,141.09,141.09,0,0,0,17.41,1.33c15.33,0,25.93-7.46,31.49-22.18,4.43-11.71,6.28-28.46,6.39-57.82A16.26,16.26,0,0,0,292,72.76c-6.09-3.92-15-6.07-26.52-6.39h-.37a13.52,13.52,0,0,0-13.05,10l-7.21,27.06a44.57,44.57,0,0,1-5.34.34,47.25,47.25,0,0,1-5.19-.3l-3.05-30.68a12.53,12.53,0,0,0-9-10.85C217.75,60.68,210.47,60,200,60Z"/><path class="cls-3" d="M289.52,86.34v.19c0,10.58-.3,19.72-.9,27.65-.1,1.1-.15,2.15-.25,3.14-.4,4.1-.85,7.84-1.45,11.23-.1.85-.3,1.7-.45,2.55-.15.65-.3,1.35-.45,2q-.3,1.35-.6,2.55c-.25.85-.45,1.65-.7,2.39a39.51,39.51,0,0,1-3.39,8c-.25.45-.55.9-.85,1.35-.15.25-.35.5-.5.74a12.08,12.08,0,0,1-1,1.25,18.85,18.85,0,0,1-4.94,4.24c-.5.3-1,.55-1.5.8-.05.05-.1.05-.2.1a20.94,20.94,0,0,1-3.09,1.1,17.06,17.06,0,0,1-2.3.5,30.22,30.22,0,0,1-3.14.4c-.7,0-1.45,0-2.2,0a129.15,129.15,0,0,1-16-1.25,39.5,39.5,0,0,0,16.52-12.28c13.27-16.66,14.22-49.4,14.12-61.28-.05-2.44-.1-4-.1-4.34a37,37,0,0,1,5.79,1.5,21.34,21.34,0,0,1,4.64,2.2A6.33,6.33,0,0,1,289.52,86.34Z"/></g></svg>