<svg xmlns="http://www.w3.org/2000/svg" viewBox="0 0 400 400"><defs><style>.cls-1{fill:#575452;}.cls-2{fill:#312e2b;}.cls-3{fill:#797675;}.cls-4{fill:#464342;}</style></defs><g id="Layer_1" data-name="Layer 1"><path class="cls-1" d="M234.11,301.73c-10.1-.3-21.25-.45-34.09-.45s-24.22.15-34.18.45l-1.06,0-1-.4c-9.17-3.77-54.9-26-54.9-93.19,0-26.08,9.48-52,28.17-77.19,13.36-18,29-32.18,41.16-41.84a28.4,28.4,0,0,1-8.75-20.4c0-15.85,13.19-28.75,29.4-28.75a29.26,29.26,0,0,1,28.78,23.14A13.05,13.05,0,0,1,223.76,75a80.87,80.87,0,0,0-10.89,13.28c-1.28,2-2.49,3.9-3.67,5.88-22.28,39.05-22,96.46-21.35,113h30.57c-.6-15.42-.84-60.8,14.13-99.66l2.71-7,5.42,5.27c23,22.36,50.42,58.27,50.42,102.39,0,67.2-45.77,89.42-54.94,93.19l-1,.4Z"/><path class="cls-2" d="M198.88,45a24.24,24.24,0,0,1,23.89,19.14,8.15,8.15,0,0,1-2.5,7.35,86.24,86.24,0,0,0-11.56,14.08c-1.3,2-2.55,4-3.79,6.09-27.25,47.76-21.81,120.57-21.81,120.57h40.57s-4.24-56.74,13.52-102.85c23.31,22.65,48.91,57,48.91,98.81,0,63.87-42.87,84.88-51.85,88.57-10-.3-21.36-.45-34.24-.45s-24.3.15-34.33.45c-9-3.69-51.8-24.7-51.8-88.57,0-57.34,48.31-100.86,72.56-119.07a23.44,23.44,0,0,1-12-20.36C174.47,55.61,185.4,45,198.88,45m0-10c-19,0-34.39,15.14-34.39,33.74a33.23,33.23,0,0,0,6.58,19.78,230.64,230.64,0,0,0-38,39.49c-19.35,26-29.16,53-29.16,80.16,0,70.4,48.3,93.82,58,97.8l2,.81,2.13-.06c10-.3,21.16-.45,34-.45s23.91.15,33.94.45l2.13.06,2-.81c9.69-4,58-27.42,58-97.8,0-45.86-28.24-82.94-51.93-106L233.32,91.67l-5.43,14.1c-13.85,36-15,77.29-14.6,96.46H192.71c-.36-20.5,1-70.73,20.83-105.56,1.11-1.87,2.26-3.72,3.51-5.63a76.11,76.11,0,0,1,10.19-12.42,18,18,0,0,0,5.31-16.48A34.26,34.26,0,0,0,198.88,35Z"/><path class="cls-3" d="M207.86,46.68S196,43.24,185.3,56.31c-10.08,12.38-7.28,24-7,25.15a22.84,22.84,0,0,1-3.85-12.72C174.47,55.61,185.4,45,198.88,45A24.16,24.16,0,0,1,207.86,46.68Z"/><path class="cls-4" d="M222.77,64.1a8.15,8.15,0,0,1-2.5,7.37,86.24,86.24,0,0,0-11.56,14.08c-1.3,2-2.55,4-3.79,6.09-27.25,47.76-21.81,120.57-21.81,120.57S168,208,168,170.89,214.3,77.17,214.3,60c0-8.93-4-12-4.94-12.62A23.84,23.84,0,0,1,222.77,64.1Z"/><path class="cls-3" d="M122.38,220.94c0,14.42.5,25.75,1.39,34.63-5.83-12.27-9.88-27.79-9.88-47.4,0-57.34,48.31-100.86,72.56-119.07,0,0,4.19,2.14,5.79,2.14C192.24,91.24,122.38,144.89,122.38,220.94Z"/><path class="cls-4" d="M286.11,208.17c0,63.87-42.87,84.88-51.85,88.57-10-.3-21.36-.45-34.24-.45-5.73,0-11.12,0-16.26.1l.05-.05c2.79-1,91.67-34.33,91.67-103.25,0-27-8.29-46.25-9.28-48.55C277.72,162.75,286.11,184.26,286.11,208.17Z"/><path class="cls-1" d="M85,360.52v-5c0-20.27.51-33.34,7.53-43.39.06-.1.13-.19.19-.28.23-.33.44-.62.7-1l.27-.35c.39-.51.84-1.09,1.39-1.68a29.44,29.44,0,0,1,4.08-3.73c.43-.34,1-.74,1.59-1.14.42-.29.83-.55,1.26-.82l.53-.34c.54-.32,1.13-.64,1.72-1a38.79,38.79,0,0,1,4.14-1.94c.68-.26,1.32-.51,2-.75s1.25-.47,1.8-.65l.28-.1a98.83,98.83,0,0,1,10.46-2.7c15.67-3.11,38.72-4.44,77.09-4.44s61.55,1.35,77.14,4.49l1.17.25c.54.11,1.06.21,1.58.34,2.42.51,4.68,1.18,6.16,1.63l.86.28,1.61.54c7.59,2.56,13.31,6.19,17.36,11H306l.92,1.27a7,7,0,0,1,.45.62l.17.24C315,322.62,315,337.87,315,355.53v5Z"/><path class="cls-2" d="M200,296.29c35.74,0,59.84,1.1,76.16,4.39.89.2,1.74.35,2.59.55,2.1.45,4,1,5.84,1.55.75.25,1.55.5,2.25.75,7.53,2.54,12.57,6,16,10.48a3.28,3.28,0,0,1,.6.85h.05c6.29,9,6.54,22,6.54,40.67H90c0-18.73.37-31.72,6.74-40.69.23-.34.42-.6.66-.92a21,21,0,0,1,1.34-1.65,26.05,26.05,0,0,1,3.44-3.15c.45-.35.94-.7,1.39-1s1-.65,1.55-1,1-.6,1.6-.9a35.07,35.07,0,0,1,3.54-1.64c.65-.25,1.3-.5,2-.75a18.88,18.88,0,0,1,1.79-.65,91.52,91.52,0,0,1,9.88-2.55c16.32-3.24,40.42-4.34,76.1-4.34M96.73,314.84h0m0,0h0m0,0h0m0,0h0m0,0h0m0,0h0m0,0h0m0,0h0m0,0h0m0,0h0m0,0h0m0,0h0m0,0h0m0,0h0m0,0h0m0,0h0m0,0h0m0,0h0m0,0h0m0,0h0m0,0h0m0,0h0m0,0h0m0,0h0m0,0h0m0,0h0m0,0h0m0,0h0M200,286.31c-38.72,0-62.06,1.36-78,4.54a101.07,101.07,0,0,0-11,2.83l0,0h0l-.26.09c-.55.18-1.28.42-2.06.74l-1.91.72-.06,0-.06,0a43.14,43.14,0,0,0-4.61,2.15c-.6.33-1.28.7-2,1.1l-.11.07-.11.07-.38.24c-.43.27-.9.57-1.43.93s-1.29.9-1.85,1.33a35.26,35.26,0,0,0-4.69,4.3c-.69.74-1.22,1.43-1.65,2l-.22.28,0,.06,0,.06c-.27.36-.52.69-.77,1.05l-.3.44C80.6,320.59,80,335,80,355.53v10H320v-10c0-18.5,0-34.48-8.34-46.4l-3-4.25h-.54c-4.49-4.66-10.42-8.21-18-10.78-.53-.19-1.1-.37-1.67-.56l-.69-.23-.12,0-.12,0c-1.55-.48-3.91-1.17-6.58-1.75l-1.62-.34-1-.21-.09,0-.1,0c-16.15-3.26-38.78-4.59-78.13-4.59Z"/><path class="cls-3" d="M303.47,314.86h-.05c-1.49-.3-32.18-6.44-103.4-6.44-73,0-103.29,6.42-103.29,6.42a23.5,23.5,0,0,1,5.44-5.72c.45-.35.94-.7,1.39-1s1-.65,1.55-1,1-.6,1.6-.9c1.1-.59,2.29-1.09,3.54-1.64.65-.25,1.3-.5,2-.75a18.88,18.88,0,0,1,1.79-.65,91.52,91.52,0,0,1,9.88-2.55c16.32-3.24,40.42-4.34,76.1-4.34s59.84,1.1,76.16,4.39c.64.15,1.34.25,1.94.4l.65.15c2.1.45,4,1,5.84,1.55.75.25,1.55.5,2.25.75,7.53,2.54,12.57,6,16,10.48A5.46,5.46,0,0,1,303.47,314.86Z"/></g></svg>