<svg xmlns="http://www.w3.org/2000/svg" viewBox="0 0 400 400"><defs><style>.cls-1{fill:#f9f9f9;}.cls-2{fill:#575452;}.cls-3{fill:#d4d4d4;}</style></defs><g id="Layer_1" data-name="Layer 1"><path class="cls-1" d="M234.11,297.55c-10.1-.3-21.25-.44-34.09-.44s-24.22.15-34.18.44h-.15a5,5,0,0,1-1.9-.38c-9.16-3.77-54.89-26-54.89-93.19,0-26.07,9.48-52,28.17-77.18,13.36-18,29-32.19,41.16-41.85a28.4,28.4,0,0,1-8.75-20.4c0-15.85,13.19-28.74,29.4-28.74A29.26,29.26,0,0,1,227.66,59a13,13,0,0,1-3.9,11.91,81.29,81.29,0,0,0-10.89,13.28c-1.29,2-2.5,3.92-3.67,5.88-22.28,39.05-22,96.46-21.35,113h30.57c-.6-15.42-.84-60.8,14.13-99.65a5,5,0,0,1,8.13-1.79C263.68,124,291.1,159.87,291.1,204c0,67.2-45.77,89.42-54.94,93.19a5,5,0,0,1-1.9.38Z"/><path class="cls-2" d="M198.88,40.81a24.23,24.23,0,0,1,23.89,19.13,8.14,8.14,0,0,1-2.5,7.35,86.32,86.32,0,0,0-11.56,14.09c-1.3,2-2.55,4-3.79,6.09C177.67,135.22,183.11,208,183.11,208h40.57s-4.24-56.74,13.52-102.85c23.31,22.66,48.91,57,48.91,98.81,0,63.87-42.87,84.88-51.85,88.58-10-.3-21.36-.45-34.24-.45s-24.3.15-34.33.45c-9-3.7-51.8-24.71-51.8-88.58,0-57.34,48.31-100.85,72.56-119.07a23.44,23.44,0,0,1-12-20.36c0-13.12,10.93-23.75,24.41-23.75m0-10c-19,0-34.39,15.13-34.39,33.73a33.21,33.21,0,0,0,6.58,19.78,231.38,231.38,0,0,0-38,39.49c-19.35,26-29.16,53-29.16,80.16,0,70.4,48.3,93.83,58,97.81a10,10,0,0,0,3.79.75h.3c10-.3,21.16-.44,34-.44s23.91.14,33.94.44h.3a10,10,0,0,0,3.79-.75c9.69-4,58-27.43,58-97.81,0-45.86-28.24-82.94-51.93-106a10,10,0,0,0-7-2.82,10.38,10.38,0,0,0-2.14.23,10,10,0,0,0-7.17,6.16c-13.85,35.95-15,77.29-14.6,96.46H192.71c-.36-20.5,1-70.73,20.83-105.56,1.11-1.87,2.26-3.71,3.51-5.63a75.59,75.59,0,0,1,10.19-12.42A18,18,0,0,0,232.55,58a34.26,34.26,0,0,0-33.67-27.13Z"/><path class="cls-3" d="M222.77,59.93a8.13,8.13,0,0,1-2.5,7.36,86.32,86.32,0,0,0-11.56,14.09c-1.3,2-2.55,4-3.79,6.09C177.67,135.22,183.11,208,183.11,208S168,203.79,168,166.71,214.3,73,214.3,55.78c0-8.94-4-12-4.94-12.63A23.83,23.83,0,0,1,222.77,59.93Z"/><path class="cls-3" d="M286.11,204c0,63.87-42.87,84.88-51.85,88.58-10-.3-21.36-.45-34.24-.45-5.73,0-11.12.05-16.26.1l.05-.05c2.79-1,91.67-34.34,91.67-103.25,0-27-8.29-46.26-9.28-48.56C277.72,158.58,286.11,180.08,286.11,204Z"/><path class="cls-1" d="M90,356.34a5,5,0,0,1-5-5c0-20.26.51-33.34,7.53-43.39l.2-.28c.22-.33.43-.62.69-1l.28-.37c.39-.5.83-1.07,1.38-1.65A30.17,30.17,0,0,1,99.16,301c.55-.43,1.16-.85,1.59-1.14s.84-.56,1.29-.84l.5-.31c.53-.32,1.11-.64,1.69-1a38.19,38.19,0,0,1,4.17-1.94c.68-.27,1.32-.51,2-.76s1.26-.47,1.81-.65l.27-.09a94.21,94.21,0,0,1,10.46-2.7c15.67-3.12,38.72-4.44,77.09-4.44s61.55,1.34,77.14,4.49l1.17.24,1.58.34c2.42.52,4.68,1.18,6.16,1.63l.8.26,1.67.56c8.06,2.72,14,6.65,18.1,12a7.69,7.69,0,0,1,.77,1l.15.2C315,318.45,315,333.69,315,351.35a5,5,0,0,1-5,5Z"/><path class="cls-2" d="M200,292.12c35.74,0,59.84,1.09,76.16,4.39.89.2,1.74.35,2.59.55,2.1.45,4,1,5.84,1.54.75.25,1.55.5,2.25.75,7.53,2.55,12.57,6,16,10.48a3.28,3.28,0,0,1,.6.85h.05c6.29,9,6.54,22,6.54,40.67H90c0-18.73.37-31.71,6.74-40.69.23-.33.42-.6.66-.92.43-.55.85-1.12,1.34-1.65a26.76,26.76,0,0,1,3.44-3.15c.45-.35.94-.7,1.39-1s1-.65,1.55-1,1-.59,1.6-.89a33,33,0,0,1,3.54-1.65c.65-.25,1.3-.5,2-.75A18.88,18.88,0,0,1,114,299a91.63,91.63,0,0,1,9.88-2.54c16.32-3.25,40.42-4.34,76.1-4.34M96.73,310.66h0m0,0h0m0,0h0m0,0h0m0,0h0m0,0h0m0,0h0m0,0h0m0,0h0m0,0h0m0,0h0m0,0h0m0,0h0m0,0h0m0,0h0m0,0h0m0,0h0m0,0h0m0,0h0m0,0h0m0,0h0m0,0h0m0,0h0m0,0h0m0,0h0m0,0h0m0,0h0m0,0h0m0,0h0m0,0h0M200,282.14c-38.72,0-62.06,1.35-78,4.53a101.07,101.07,0,0,0-11,2.83l-.09,0-.26.09c-.55.18-1.28.42-2.06.75l-1.91.72-.12,0a43.14,43.14,0,0,0-4.61,2.15c-.6.33-1.27.7-2,1.11l-.23.14-.38.24c-.42.26-.9.56-1.43.93s-1.29.89-1.84,1.32a34.72,34.72,0,0,0-4.7,4.3c-.69.74-1.22,1.43-1.65,2l-.22.29-.09.11c-.27.36-.52.69-.77,1.05-.1.15-.21.3-.3.45C80.6,316.42,80,330.79,80,351.35a10,10,0,0,0,10,10H310a10,10,0,0,0,10-10c0-18.5,0-34.48-8.34-46.39l-.16-.23a14.16,14.16,0,0,0-1-1.31c-4.69-6-11.36-10.45-20.36-13.5l-1.67-.56-.69-.23-.24-.07c-1.55-.47-3.91-1.17-6.58-1.74-.54-.13-1.07-.24-1.62-.35l-1-.21-.19,0c-16.15-3.25-38.78-4.58-78.13-4.58Z"/></g></svg>