<svg xmlns="http://www.w3.org/2000/svg" viewBox="0 0 400 400"><defs><style>.cls-1{fill:#575452;}.cls-2{fill:#312e2b;}.cls-3{fill:#464342;}.cls-4{fill:#797675;}.cls-5{fill:none;}</style></defs><g id="Layer_1" data-name="Layer 1"><path class="cls-1" d="M266.86,304.23c-14.69-2-35.32-3-66.89-3s-52.1.91-66.83,3l-2.54.35L70.87,241.67c-1.72-1.68-20.3-20.51-20.3-49.87,0-48.62,36.82-74.86,71.46-74.86a116.75,116.75,0,0,1,52.55,12.36l4.58-26.13h-27v-41h28V36.3h39.68V62.2h28v41h-27l4.58,26.13A116.75,116.75,0,0,1,278,116.94c34.65,0,71.46,26.24,71.46,74.86,0,29.36-18.58,48.19-20.3,49.87L269.4,304.58ZM231,243.58a19.24,19.24,0,0,0,8.59,1.66,17.81,17.81,0,0,0,12.17-5l27.54-27.9c.24-.25,6.05-6.46,6.05-19.89a15.21,15.21,0,0,0-.11-1.82c-.08-.59-.16-1.12-.28-1.67,0,0,0-.06,0-.09l-.1-.11-.34-1.36,0-.13v0a2.7,2.7,0,0,0-.17-.44l-.16-.32-.05-.16-.11-.26a8.06,8.06,0,0,0-.43-.87,16,16,0,0,0-3-3.88l-.1-.1-.1-.1a15.49,15.49,0,0,0-1.48-1.29,26.19,26.19,0,0,0-3.87-2.37,10.43,10.43,0,0,0-1.12-.48l-.27-.09-.25-.13-.33-.16-.22-.07-.14-.07c-.16-.07-.55-.19-.86-.28l-.25-.08-.24-.1a5.87,5.87,0,0,0-1.07-.32l-.27-.06-.26-.09-.17-.05-.32,0-.27-.08A11.92,11.92,0,0,0,267,175l-.9-.1-.11-.06c-.82-.13-1.74-.25-2.69-.33s-2.18-.13-3.33-.13c-12.77,0-24.73,8.42-29,11.78Zm-90.87-69.25c-14.92,0-25.35,7.45-25.35,18.12a16.32,16.32,0,0,0,.06,1.82l0,.2v.2c.54,11.9,5.73,17.45,6,17.68l14.52,14.72,13,13.14.06.06a17.8,17.8,0,0,0,12.14,5,19.24,19.24,0,0,0,8.59-1.66V186.11C164.83,182.75,152.86,174.33,140.09,174.33Z"/><path class="cls-2" d="M214.85,41.29v25.9h28v31h-28l6.83,39s22.36-15.22,56.24-15.22,66.47,26.1,66.47,69.87c0,28.34-18.86,46.36-18.86,46.36l-58,61.13c-15.82-2.2-37.62-3-67.56-3s-51.65.8-67.52,3l-58-61.13s-18.86-18-18.86-46.36c0-43.77,32.58-69.87,66.47-69.87s56.24,15.22,56.24,15.22l6.83-39h-28v-31h28V41.29h29.7m24.7,208.94a22.94,22.94,0,0,0,15.82-6.58l27.44-27.8s7.49-7.44,7.49-23.4a19.54,19.54,0,0,0-.15-2.45c-.1-.75-.2-1.4-.35-2.09a12.27,12.27,0,0,0-.4-1.45.38.38,0,0,0-.1-.25,8,8,0,0,0-.6-1.65,2.44,2.44,0,0,0-.15-.35,12,12,0,0,0-.7-1.44,20.73,20.73,0,0,0-3.89-5.05,21.11,21.11,0,0,0-2.09-1.84,31.07,31.07,0,0,0-4.7-2.9,13.44,13.44,0,0,0-1.64-.69,7.08,7.08,0,0,0-.9-.4,12.34,12.34,0,0,0-1.45-.5,11.27,11.27,0,0,0-1.94-.6,5.85,5.85,0,0,0-1-.25,17.25,17.25,0,0,0-2.7-.55.74.74,0,0,0-.35-.05c-1.09-.2-2.29-.35-3.49-.45s-2.44-.15-3.74-.15c-18.07,0-34,14.42-34,14.42v62.43s3.8,4,13.58,4m-79.05,0c9.78,0,13.58-4,13.58-4V183.76s-15.92-14.42-34-14.42-30.34,9.73-30.34,23.11a19.59,19.59,0,0,0,.1,2.44c.65,14.27,7.39,21,7.39,21l14.52,14.72,12.92,13.08a22.94,22.94,0,0,0,15.82,6.58M224.83,31.31H175.17v25.9h-28v50.95h26.09L170.79,122A123.09,123.09,0,0,0,122,112a76.62,76.62,0,0,0-52.89,21.34C54,148,45.58,168.79,45.58,191.8c0,30.86,19.29,50.95,21.73,53.36l57.91,61,3.53,3.72,5.07-.71c14.5-2,34.9-2.9,66.16-2.9s51.74.9,66.19,2.9l5.08.71,3.53-3.72,57.91-61c2.44-2.41,21.73-22.5,21.73-53.36,0-23-8.37-43.79-23.56-58.51A76.62,76.62,0,0,0,278,112,123.09,123.09,0,0,0,229.21,122l-2.43-13.86h26.09V57.21h-28V31.31ZM236,188.59c4.81-3.49,14.27-9.27,24-9.27,1,0,2,0,2.91.12.56,0,1.1.1,1.6.17l.2.1,1.24.14.39.07h.23a8,8,0,0,1,1,.24l.62.17.18,0,.24.08.53.12.2,0,.48.2.5.15.39.12.31.13.08,0,.48.24.54.2.59.24a20.92,20.92,0,0,1,3.05,1.87c.35.28.75.6.9.74l.19.21.17.17a10.94,10.94,0,0,1,2.05,2.61l0,.05,0,.05.16.31.09.23.08.24.2.4h0l.55,2.2c0,.09,0,.18,0,.28a8.76,8.76,0,0,1,.07,1.17c0,10.42-3.95,15.59-4.63,16.4l-.14.13.12-.11,0,0-27.36,27.71-.23.23a12.94,12.94,0,0,1-8.49,3.39,19.62,19.62,0,0,1-3.6-.3V188.59ZM124.42,208.92c-.4-.46-4.17-5-4.6-14.48l0-.4,0-.39c0-.19,0-.77,0-1.2,0-7.73,8.37-13.13,20.36-13.13,9.74,0,19.19,5.78,24,9.27V240a19.62,19.62,0,0,1-3.6.3,13,13,0,0,1-8.51-3.41l-.19-.22h0l-12.92-13.07-14.44-14.64Z"/><path class="cls-3" d="M287.7,173.13,284,177.72c-5.29-5.18-13.72-8.38-24-8.38-18.07,0-34,14.42-34,14.42v62.43l-6,2.35V181.12l1.94-1.8c.75-.65,17.87-16,38-16C271.44,163.35,281.22,167,287.7,173.13Z"/><path class="cls-4" d="M296.29,192.45c0,18-8.29,26.69-9.23,27.64l-27.45,27.75a28.89,28.89,0,0,1-20.06,8.38c-11.78,0-17-4.94-18-5.94L220,248.54l6-2.35s3.8,4,13.58,4a22.94,22.94,0,0,0,15.82-6.58l27.44-27.8s7.49-7.44,7.49-23.4A20.15,20.15,0,0,0,284,177.72l3.74-4.59A25.69,25.69,0,0,1,296.29,192.45Z"/><path class="cls-3" d="M180.06,181.12l-6,2.64s-15.92-14.42-34-14.42-30.34,9.73-30.34,23.11a19.59,19.59,0,0,0,.1,2.44c.65,14.27,7.39,21,7.39,21l14.52,14.72-4.14,4.34L113,220c-.84-.8-8.38-8.73-9.13-24.9a19.7,19.7,0,0,1-.1-2.69c0-16.87,15.27-29.1,36.33-29.1,20.16,0,37.28,15.32,38,16Z"/><path class="cls-4" d="M180.06,181.12v67.47l-1.59,1.69c-.95,1-6.19,5.94-18,5.94a29.3,29.3,0,0,1-20.26-8.53l-12.62-12.78,4.14-4.34,12.92,13.08a22.94,22.94,0,0,0,15.82,6.58c9.78,0,13.58-4,13.58-4V183.76Z"/><path class="cls-4" d="M159.37,128.26A268.5,268.5,0,0,0,125.22,126c-18.46,0-63.48,20.21-63.48,68.41a116.88,116.88,0,0,0,4.9,33.84A67.33,67.33,0,0,1,55.56,191.8c0-43.77,32.58-69.87,66.47-69.87A113.55,113.55,0,0,1,159.37,128.26Z"/><polygon class="cls-4" points="242.89 67.19 237.4 72.68 209.36 72.68 214.85 67.19 242.89 67.19"/><polygon class="cls-3" points="214.85 41.29 214.85 67.19 209.36 72.68 209.36 46.78 214.85 41.29"/><polygon class="cls-3" points="157.11 98.18 185.1 98.18 186.07 92.69 162.6 92.69 157.11 98.18"/><polygon class="cls-3" points="242.89 67.19 242.89 98.18 214.9 98.18 213.95 92.69 237.4 92.69 237.4 72.68 242.89 67.19"/><polygon class="cls-4" points="209.37 46.77 190.63 46.77 190.63 72.67 162.59 72.67 162.6 92.69 157.11 98.18 157.11 67.19 185.15 67.19 185.15 41.29 214.85 41.29 209.37 46.77"/><path class="cls-3" d="M344.44,191.8c0,28.34-18.86,46.36-18.86,46.36l-58,61.13c-6.63-.9-14.32-1.6-23.2-2.1,2-1.89,62.63-58.78,75.75-71.91,13.37-13.37,20.06-30.29,20.06-46.81,0-15.57-12.7-33.81-14.29-36.05C337.19,154.3,344.44,171.09,344.44,191.8Z"/><line class="cls-5" x1="287.75" y1="173.08" x2="287.7" y2="173.13"/><path class="cls-1" d="M85,360.52v-5c0-19.79.53-33.52,7.66-43.56l.07-.1c.07-.11.18-.28.34-.49l.23-.35.08-.11c.14-.19.3-.38.47-.57a4.14,4.14,0,0,1,.4-.51l.08-.1a9.77,9.77,0,0,1,.86-1l.42-.4A17.52,17.52,0,0,1,96.9,307a23.19,23.19,0,0,1,2.18-1.87c.46-.36,1-.75,1.62-1.16.42-.29.83-.56,1.27-.83l.52-.33c.54-.32,1.13-.64,1.72-1,1.17-.64,2.3-1.14,3.39-1.61l.7-.31.11,0c.63-.24,1.26-.49,1.93-.73s1.26-.48,1.81-.66l.27-.09a98.83,98.83,0,0,1,10.46-2.7c2.71-.5,4.94-.87,7.09-1.18.69-.12,1.37-.18,1.92-.23h0c15.2-2.09,36.2-3,68.08-3s53,.94,68.14,3c.57.05,1.19.11,1.85.23,2.47.35,4.81.75,7.17,1.24l.12,0c.23.06.47.1.71.14l1.21.25.68.16c2.48.54,4.71,1.19,6.17,1.64l.86.28,1.61.54c7.59,2.56,13.31,6.19,17.36,11H306l.92,1.27c.16.2.3.4.44.61l.18.25C315,322.62,315,337.87,315,355.53v5Z"/><path class="cls-2" d="M200,296.29c29.94,0,51.74.8,67.56,3a15.53,15.53,0,0,1,1.6.2c2.49.35,4.79.75,7,1.19.65.15,1.34.25,1.94.4l.65.15c2.1.45,4,1,5.84,1.55.75.25,1.55.5,2.25.75,7.53,2.54,12.57,6,16,10.48a3.28,3.28,0,0,1,.6.85h.05c6.29,9,6.54,22,6.54,40.67h-220c0-18.72.4-31.74,6.74-40.67a5.24,5.24,0,0,1,.4-.55c.1-.15.15-.25.25-.4s.34-.4.49-.6a.69.69,0,0,1,.15-.2c.25-.3.45-.6.7-.85a2.5,2.5,0,0,1,.4-.35,9.16,9.16,0,0,1,1.25-1.24,18.25,18.25,0,0,1,1.8-1.55c.45-.35.94-.7,1.39-1s1-.65,1.55-1,1-.6,1.6-.9c1.1-.59,2.29-1.09,3.54-1.64.65-.25,1.3-.5,2-.75a18.88,18.88,0,0,1,1.79-.65,91.52,91.52,0,0,1,9.88-2.55c2.15-.39,4.45-.79,6.89-1.14.55-.1,1.15-.15,1.7-.2,15.87-2.2,37.62-3,67.52-3m0-10c-32,0-53.24.95-68.65,3.06-.58.05-1.32.12-2.14.26-2.2.32-4.48.7-7.14,1.19l-.08,0h-.08a102.71,102.71,0,0,0-11,2.83l0,0h0l-.26.09c-.55.18-1.28.42-2.06.74l-1.91.72-.21.09-.22.09-.58.26c-1.13.49-2.42,1.05-3.72,1.76-.6.33-1.28.7-2,1.1l-.11.07-.11.07-.38.24c-.42.27-.9.57-1.43.94-.69.46-1.32.91-1.88,1.34a27.29,27.29,0,0,0-2.51,2.16c-.42.37-.93.84-1.47,1.42l-.41.4a13.86,13.86,0,0,0-1.27,1.47c-.17.19-.32.38-.47.58s-.34.4-.54.67l-.17.22-.15.24a1.88,1.88,0,0,0-.12.18c-.14.19-.26.37-.37.54-8,11.24-8.57,25.68-8.57,46.43v10h240v-10c0-18.5,0-34.48-8.34-46.4l-3-4.25h-.54c-4.49-4.66-10.42-8.21-18-10.78-.53-.19-1.1-.37-1.67-.56l-.69-.23-.12,0-.12,0c-1.54-.47-3.87-1.16-6.5-1.73l-.72-.17c-.52-.12-1-.2-1.37-.28l-.52-.1-.12,0-.12,0c-2.42-.5-4.84-.91-7.37-1.27-.78-.14-1.48-.22-2.08-.27-15.37-2.11-36.58-3.06-68.7-3.06Z"/><path class="cls-4" d="M303.42,314.86h-.05c-1.49-.3-32.18-6.44-103.39-6.44-73,0-103.3,6.44-103.3,6.44a5.24,5.24,0,0,1,.4-.55c.25-.35.5-.7.74-1a.69.69,0,0,1,.15-.2c.35-.4.7-.8,1.1-1.2a9.16,9.16,0,0,1,1.25-1.24,18.25,18.25,0,0,1,1.8-1.55c.45-.35.94-.7,1.39-1s1-.65,1.55-1,1-.6,1.6-.9c1.1-.59,2.29-1.09,3.54-1.64.65-.25,1.3-.5,2-.75a18.88,18.88,0,0,1,1.79-.65,91.52,91.52,0,0,1,9.88-2.55c2.15-.39,4.45-.79,6.89-1.14.55-.1,1.15-.15,1.7-.2,15.87-2.2,37.62-3,67.52-3s51.74.8,67.56,3a15.53,15.53,0,0,1,1.6.2c2.5.35,4.79.75,7,1.19.65.15,1.34.25,1.94.4l.65.15c2.1.45,4,1,5.84,1.55.75.25,1.55.5,2.25.75,7.53,2.54,12.57,6,16,10.48A5.46,5.46,0,0,1,303.42,314.86Z"/></g></svg>