<svg xmlns="http://www.w3.org/2000/svg" viewBox="0 0 400 400"><defs><style>.cls-1{fill:#f9f9f9;}.cls-2{fill:#575452;}.cls-3{fill:#d4d4d4;}</style></defs><g id="Layer_1" data-name="Layer 1"><path class="cls-1" d="M130.81,300.3a5,5,0,0,1-4.6-3.06L71,165.37C57.4,162.78,47.17,151,47.17,137.22c0-15.82,13.21-28.69,29.45-28.69s29.44,12.87,29.44,28.69a27.75,27.75,0,0,1-3.56,13.66L137.42,190l4.71-86.16a30.14,30.14,0,0,1-19.5-28.11c0-16.73,13.94-30.34,31.08-30.34S184.85,59,184.85,75.69a29.94,29.94,0,0,1-12,23.81L200,174.59l27.11-75a30,30,0,0,1-12-23.86c0-16.73,14-30.34,31.13-30.34S277.42,59,277.42,75.69a30.2,30.2,0,0,1-19.55,28.09L262.63,190l34.87-39.08a27.75,27.75,0,0,1-3.56-13.66c0-15.82,13.21-28.69,29.44-28.69s29.45,12.87,29.45,28.69A28.69,28.69,0,0,1,329,165.38L273.79,297.24a5,5,0,0,1-4.6,3.06,6.11,6.11,0,0,1-.73-.05c-14.79-2.18-35.89-3.14-68.44-3.14s-53.65,1-68.49,3.14A5.81,5.81,0,0,1,130.81,300.3Z"/><path class="cls-2" d="M246.28,50.34c14.43,0,26.15,11.33,26.15,25.35,0,11.83-8.43,21.76-19.76,24.5l5.64,102.1,45.46-50.95a23,23,0,0,1-4.84-14.12c0-13.08,10.93-23.71,24.45-23.71s24.46,10.63,24.46,23.71c0,12.37-9.78,22.55-22.31,23.6L269.19,295.31c-16-2.35-38.23-3.19-69.17-3.19s-53.19.84-69.21,3.19L74.47,160.82c-12.48-1-22.31-11.23-22.31-23.6,0-13.08,11-23.71,24.46-23.71s24.45,10.63,24.45,23.71a23,23,0,0,1-4.84,14.12l45.51,50.95,5.59-102.1a25.37,25.37,0,0,1-19.71-24.5c0-14,11.67-25.35,26.1-25.35s26.14,11.33,26.14,25.35a25,25,0,0,1-13,21.81L200,189.27l33.14-91.72a25.1,25.1,0,0,1-13-21.86c0-14,11.72-25.35,26.14-25.35m0-10c-19.92,0-36.12,15.85-36.12,35.33a34.93,34.93,0,0,0,11.1,25.43L200,159.91l-21.27-58.84a34.86,34.86,0,0,0,11.09-25.38c0-19.48-16.2-35.33-36.12-35.33s-36.08,15.85-36.08,35.33A35,35,0,0,0,137,107l-3.87,70.68-24.63-27.58a32.68,32.68,0,0,0,2.59-12.83c0-18.57-15.45-33.69-34.43-33.69s-34.44,15.12-34.44,33.69a33.18,33.18,0,0,0,9.23,22.93,34.54,34.54,0,0,0,15.94,9.51L121.6,299.17a10,10,0,0,0,9.21,6.12,10.2,10.2,0,0,0,1.45-.1c14.58-2.14,35.48-3.09,67.76-3.09s53.18.95,67.72,3.08a8.93,8.93,0,0,0,1.45.11,10,10,0,0,0,9.21-6.12l54.25-129.51a34.48,34.48,0,0,0,16-9.52,33.18,33.18,0,0,0,9.2-22.92c0-18.57-15.45-33.69-34.44-33.69S289,118.65,289,137.22a32.77,32.77,0,0,0,2.59,12.84l-24.6,27.56L263,106.93a35.07,35.07,0,0,0,19.37-31.24c0-19.48-16.2-35.33-36.13-35.33Z"/><path class="cls-3" d="M124,182.43c-2.14-1.65-36.72-28-36.72-37.48,0-9.68,7-13,7-18.46,0-5-4.34-9-4.89-9.48a23.44,23.44,0,0,1,11.73,20.21,23,23,0,0,1-4.84,14.12Z"/><path class="cls-3" d="M160.35,91.76c0-14.17,12.08-21.16,12.08-28,0-4.64-1.4-6.88-2.3-7.78a24.8,24.8,0,0,1-3.29,41.52L186.55,152S160.35,105.93,160.35,91.76Z"/><path class="cls-3" d="M252.67,100.19l4.79,86.48c-.45-2.19-13.82-72.36-13.82-87.43,0-15.27,19.91-28.79,19.91-35.83,0-6-2.34-8.38-3-8.93a25.1,25.1,0,0,1,11.87,21.21C272.43,87.52,264,97.45,252.67,100.19Z"/><path class="cls-3" d="M347.84,137.22c0,12.37-9.78,22.55-22.31,23.6L269.19,295.31c-16-2.35-38.23-3.19-69.17-3.19-9.33,0-17.86.05-25.65.25,2-.3,45.07-6.94,81-42.92,36.87-36.83,60.18-93.87,60.18-93.87s26.45-4.44,26.45-23.9a21.47,21.47,0,0,0-4.84-14A23.53,23.53,0,0,1,347.84,137.22Z"/><path class="cls-1" d="M90,356.34a5,5,0,0,1-5-5c0-19.79.53-33.52,7.66-43.56l.07-.09a5.11,5.11,0,0,1,.34-.49,2.36,2.36,0,0,1,.15-.25l.16-.21c.14-.19.3-.39.47-.58a4.84,4.84,0,0,1,.4-.5l.08-.1a8.82,8.82,0,0,1,.86-1c.11-.11.24-.24.42-.4A16.1,16.1,0,0,1,97,302.85,23,23,0,0,1,99.12,301c.47-.37,1-.76,1.63-1.17.42-.29.84-.56,1.29-.84l.5-.31c.54-.33,1.13-.65,1.72-1,1.17-.64,2.29-1.13,3.38-1.6l.6-.27.22-.09,1.93-.73c.64-.27,1.26-.47,1.81-.65l.27-.09a94.21,94.21,0,0,1,10.46-2.7c2.75-.51,5-.89,7.18-1.2,15.31-2.24,36.88-3.24,69.91-3.24s54.61,1,69.9,3.24c2.47.35,4.86.76,7.26,1.25l.12,0c.23.06.47.1.71.15.42.08.82.16,1.2.25s.48.1.69.16c2.48.53,4.71,1.18,6.17,1.63l.81.27,1.66.55c8.06,2.72,14,6.65,18.1,12a7.69,7.69,0,0,1,.77,1l.15.2C315,318.45,315,333.69,315,351.35a5,5,0,0,1-5,5Z"/><path class="cls-2" d="M200,292.12c30.94,0,53.2.84,69.17,3.19,2.49.35,4.79.75,7,1.2.64.15,1.34.25,1.94.4l.65.15c2.1.45,4,1,5.84,1.54.75.25,1.55.5,2.25.75,7.53,2.55,12.57,6,16,10.48a3.28,3.28,0,0,1,.6.85h.05c6.29,9,6.54,22,6.54,40.67H90c0-18.71.4-31.74,6.74-40.67a5.24,5.24,0,0,1,.4-.55c.1-.15.15-.25.25-.4s.34-.4.49-.6a.69.69,0,0,1,.15-.2c.25-.3.45-.6.7-.85a3,3,0,0,1,.4-.34,9.84,9.84,0,0,1,1.25-1.25,18.25,18.25,0,0,1,1.8-1.55c.45-.35.94-.7,1.39-1s1-.65,1.55-1,1-.59,1.6-.89c1.09-.6,2.29-1.1,3.54-1.65.65-.25,1.3-.5,2-.75A18.88,18.88,0,0,1,114,299a91.63,91.63,0,0,1,9.88-2.54c2.15-.4,4.44-.8,6.89-1.15,16-2.35,38.23-3.19,69.21-3.19m0-10c-33.28,0-55.07,1-70.66,3.29-2.22.32-4.54.71-7.26,1.22l-.16,0a100.42,100.42,0,0,0-11,2.82l-.09,0-.26.09c-.55.18-1.28.42-2.06.75l-1.91.72-.43.17-.58.26c-1.13.49-2.42,1.05-3.72,1.76-.6.33-1.28.7-2,1.11l-.22.14-.38.24c-.43.26-.9.56-1.43.93-.69.46-1.32.91-1.88,1.35a27.49,27.49,0,0,0-2.51,2.15,18.81,18.81,0,0,0-1.47,1.43c-.18.16-.31.3-.41.4a13,13,0,0,0-1.27,1.46c-.17.19-.32.39-.47.59s-.34.4-.54.67-.22.29-.32.44l-.12.19-.38.54c-8,11.25-8.56,25.69-8.56,46.43a10,10,0,0,0,10,10H310a10,10,0,0,0,10-10c0-18.5,0-34.48-8.34-46.39l-.16-.23a14.16,14.16,0,0,0-1-1.31c-4.69-6-11.36-10.44-20.36-13.5l-1.67-.56-.7-.23-.23-.07c-1.54-.47-3.87-1.15-6.5-1.73l-.72-.16c-.52-.12-1-.21-1.37-.28l-.52-.11-.24,0c-2.48-.51-5-.93-7.57-1.3-15.54-2.28-37.31-3.29-70.59-3.29Z"/></g></svg>