<svg xmlns="http://www.w3.org/2000/svg" viewBox="0 0 400 400"><defs><style>.cls-1{fill:#575452;}.cls-2{fill:#312e2b;}.cls-3{fill:#797675;}.cls-4{fill:#464342;}</style></defs><g id="Layer_1" data-name="Layer 1"><path class="cls-1" d="M292.28,305.92l-.74-.15c-.35-.06-.7-.13-1-.21-14.91-3-37.38-4.28-75.11-4.28s-60.15,1.27-75.12,4.25l-6.07,1.21.1-6.19c.34-19.81,8.76-31.69,17.35-42.16,2.61-3.15,7.59-7.43,13.89-12.85C181.05,232.2,207,209.88,207,193.29c0-8.36-2.24-15.17-5-15.17-1.37,0-4.09,3.41-6.5,6.42-5.39,6.74-13.53,16.93-29.56,23a51.75,51.75,0,0,1-17.31,3.34c-3.51.17-5.27.3-6.9,1.41-6,4.06-10,9-13.62,13.29-4.71,5.68-8.77,10.58-15.18,10.58s-16.82-1.37-25.28-5.24c-11.12-5-18-14-18-23.6,0-8.56,6.15-16.3,9.1-20l.49-.62c27.73-36,32.22-51.09,35.5-62.13a80.44,80.44,0,0,1,3.76-10.75c4.13-9.25,13.93-20.18,21.8-29,3.53-3.93,7.91-8.81,8.65-10.33a56,56,0,0,0,.65-7.47c.15-3.14.33-6.69.76-10.16a12,12,0,0,1,11.95-10.53A11.8,11.8,0,0,1,171,50.18c22,23.65,28.29,27.23,29.49,27.74,33.39.13,64.1,16.08,86.53,44.94C306.61,148,318.29,181.37,318.29,212c0,43.84-19.39,89.15-20.22,91.06L296.39,307Z"/><path class="cls-2" d="M162.29,51.34a6.86,6.86,0,0,1,5.06,2.23c10.34,11.14,28,29.34,32.72,29.34,70.42,0,113.23,71.66,113.23,129.1,0,43.31-19.81,89.07-19.81,89.07-.6-.15-1.3-.25-1.94-.4-16.32-3.29-40.42-4.39-76.16-4.39s-59.78,1.1-76.1,4.34c.3-17.66,7.29-28.19,16.22-39.07S212,218.79,212,193.29c0-9.53-2.54-20.16-10-20.16-9,0-12.52,20.16-37.82,29.75-13.23,5-19.32,1.24-25.26,5.29-13.92,9.48-18.31,23-26,23-6,0-15.67-1.35-23.21-4.79C79.41,221.74,74.62,214,74.62,207.32c0-7.34,6.39-14.82,8.53-17.57,37.08-48.1,33.49-59.73,39.88-73.9s28.79-34.54,30.59-39.63c1-3.06.75-11.26,1.67-18.73a7,7,0,0,1,7-6.15m0-10h0a17,17,0,0,0-16.9,14.91c-.45,3.65-.64,7.3-.8,10.52-.1,2-.23,4.53-.4,5.86-1.28,1.79-4.77,5.68-7.62,8.86-8.11,9-18.2,20.29-22.66,30.26a85.57,85.57,0,0,0-4,11.36c-3.17,10.66-7.5,25.25-34.67,60.5l-.45.57c-3,3.83-10.18,12.82-10.18,23.12,0,11.54,8,22.32,21,28.15,9.19,4.19,20.46,5.68,27.33,5.68,8.75,0,14-6.29,19-12.38,3.38-4.07,7.21-8.69,12.59-12.36.51-.34,2-.43,4.34-.54a56.47,56.47,0,0,0,18.82-3.66c17.31-6.55,26-17.39,31.7-24.55.55-.69,1.17-1.47,1.78-2.21a33.78,33.78,0,0,1,.82,7.84c0,3.93-2.2,11.1-12.67,23-8.2,9.29-18.66,18.29-27.06,25.51-6.49,5.58-11.61,10-14.48,13.46-9.17,11.17-18.13,23.84-18.5,45.26l-.21,12.37,12.14-2.42c14.63-2.91,36.81-4.15,74.15-4.15s59.5,1.25,74.07,4.18l1.16.23.47.09,8.22,2.06,3.34-7.78c.84-1.95,20.63-48.17,20.63-93,0-31.71-12.07-66.19-32.31-92.22-23.1-29.72-54.7-46.3-89.15-46.85-3-1.93-11.29-9.08-27.16-26.16a16.7,16.7,0,0,0-12.37-5.42Z"/><path class="cls-2" d="M166.65,110.29c8.28,0,12.1,4.24,12.1,12.1a12.52,12.52,0,0,1-12.47,12.47H149.45S151.47,110.29,166.65,110.29Z"/><path class="cls-3" d="M166,88.3c-7.93,8.28-17.17,10.53-27.35,23.55s-6.73,31.24-17.21,43S76,213.55,76,213.55a15,15,0,0,1-1.4-6.23c0-7.34,6.39-14.82,8.53-17.57,37.08-48.1,33.49-59.73,39.88-73.9s28.79-34.54,30.59-39.63c1-3,.74-11.27,1.69-18.71a7,7,0,0,1,12-3.94l4.94,5.24S174,80,166,88.3Z"/><path class="cls-4" d="M162.5,203.47c-12.08,4.1-17.87.85-23.56,4.7-12,8.18-16.91,19.31-23,22.25,0,0,14.22-36,19.36-37.13S150.07,204.22,162.5,203.47Z"/><path class="cls-4" d="M209.16,205A28.7,28.7,0,0,0,212,193.29c0-9.53-2.54-20.16-10-20.16a7.16,7.16,0,0,0-4.54,1.8c.8-1,12-15.05,17.3-25.44a1.83,1.83,0,0,1,3.44.54C219.69,159.85,220.76,181,209.16,205Z"/><path class="cls-4" d="M313.3,212c0,43.31-19.81,89.07-19.81,89.07-.6-.15-1.3-.25-1.94-.4-12.68-2.54-30-3.79-53.85-4.24.05-50.45,47.11-57.48,47.11-119.71,0-82.94-84.74-93.82-84.74-93.82C270.49,82.91,313.3,154.57,313.3,212Z"/><path class="cls-1" d="M100.37,360.52v-5c0-20.28.51-33.36,7.54-43.41l.17-.24c.23-.34.45-.64.71-1l.28-.36c.39-.51.83-1.08,1.37-1.67a30.08,30.08,0,0,1,4.09-3.73c.43-.34,1-.74,1.59-1.14.41-.29.83-.55,1.26-.82l.53-.34c.54-.32,1.13-.64,1.72-1a38.79,38.79,0,0,1,4.14-1.94c.68-.26,1.32-.51,2-.75s1.26-.48,1.81-.66l.27-.09a98.83,98.83,0,0,1,10.46-2.7c15.67-3.11,38.72-4.44,77.09-4.44s61.55,1.35,77.14,4.49l1.17.25c.54.11,1.06.21,1.58.34,2.42.51,4.68,1.18,6.16,1.63l.86.28,1.61.54c7.59,2.56,13.31,6.19,17.36,11h.12l.92,1.27c.16.2.3.4.44.61l.18.25c7.44,10.62,7.44,25.87,7.44,43.53v5Z"/><path class="cls-2" d="M215.39,296.29c35.74,0,59.84,1.1,76.16,4.39.89.2,1.74.35,2.59.55,2.1.45,4,1,5.84,1.55.75.25,1.55.5,2.25.75,7.53,2.54,12.57,6,16,10.48a3.28,3.28,0,0,1,.6.85h0c6.29,9,6.54,22,6.54,40.67h-220c0-18.73.37-31.72,6.74-40.69.23-.34.42-.6.66-.92a21,21,0,0,1,1.34-1.65,26.05,26.05,0,0,1,3.44-3.15c.45-.35.94-.7,1.39-1s1-.65,1.55-1,1-.6,1.6-.9a34.08,34.08,0,0,1,3.54-1.64c.65-.25,1.3-.5,2-.75a18.88,18.88,0,0,1,1.79-.65,91.52,91.52,0,0,1,9.88-2.55c16.32-3.24,40.42-4.34,76.1-4.34M112.1,314.84h0m0,0h0m0,0h0m0,0h0m0,0h0m0,0h0m0,0h0m0,0h0m0,0h0m0,0h0m0,0h0m0,0h0m0,0h0m0,0h0m0,0h0m0,0h0m0,0h0m0,0h0m0,0h0m0,0h0m0,0h0m0,0h0m0,0h0m0,0h0m0,0h0m0,0h0m0,0h0m0,0h0m0,0h0m0,0h0m0,0h0m0,0h0m0,0h0m0,0h0m103.3-28.53c-38.72,0-62.06,1.36-78,4.54a101.07,101.07,0,0,0-11,2.83l0,0h0l-.26.09c-.55.18-1.28.42-2.06.74l-1.91.72-.06,0-.06,0a43.14,43.14,0,0,0-4.61,2.15c-.6.33-1.28.7-2,1.1l-.11.07-.11.07-.38.24c-.43.27-.9.57-1.43.93s-1.29.9-1.84,1.33a34.78,34.78,0,0,0-4.71,4.3c-.68.75-1.21,1.43-1.64,2l-.22.29-.05.06,0,.06c-.27.35-.51.68-.75,1-.12.16-.23.32-.34.49C96,320.62,95.38,335,95.38,355.53v10h240v-10c0-18.5,0-34.48-8.34-46.4l-3-4.25h-.54c-4.49-4.66-10.42-8.21-18-10.78-.53-.19-1.1-.37-1.67-.56l-.69-.23-.12,0-.12,0c-1.55-.48-3.91-1.17-6.58-1.75l-1.62-.34-1-.21-.09,0-.1,0c-16.15-3.26-38.78-4.59-78.13-4.59Z"/><path class="cls-3" d="M318.84,314.86h0c-1.49-.3-32.18-6.44-103.4-6.44-73,0-103.29,6.42-103.29,6.42a23.5,23.5,0,0,1,5.44-5.72c.45-.35.94-.7,1.39-1s1-.65,1.55-1,1-.6,1.6-.9c1.09-.59,2.29-1.09,3.54-1.64.65-.25,1.3-.5,2-.75a18.88,18.88,0,0,1,1.79-.65,91.52,91.52,0,0,1,9.88-2.55c16.32-3.24,40.42-4.34,76.1-4.34s59.84,1.1,76.16,4.39c.64.15,1.34.25,1.94.4l.65.15c2.1.45,4,1,5.84,1.55.75.25,1.55.5,2.25.75,7.53,2.54,12.57,6,16,10.48A5.46,5.46,0,0,1,318.84,314.86Z"/></g></svg>