<svg xmlns="http://www.w3.org/2000/svg" viewBox="0 0 400 400"><defs><style>.cls-1{fill:#f9f9f9;}.cls-2{fill:#575452;}.cls-3{fill:#d4d4d4;}</style></defs><g id="Layer_1" data-name="Layer 1"><path class="cls-1" d="M293.49,301.9a5,5,0,0,1-1.21-.15c-.23-.06-.49-.11-.74-.15l-1-.21c-14.91-3-37.38-4.28-75.11-4.28s-60.15,1.27-75.12,4.24a4.66,4.66,0,0,1-1,.1,5,5,0,0,1-5-5.08c.34-19.81,8.76-31.68,17.36-42.15,2.6-3.16,7.58-7.44,13.88-12.86C181.05,228,207,205.7,207,189.12c0-8.37-2.24-15.17-5-15.17-1.37,0-4.09,3.41-6.5,6.41-5.39,6.75-13.53,16.94-29.56,23a51.94,51.94,0,0,1-17.31,3.33c-3.51.17-5.27.31-6.9,1.41-6,4.07-10,9-13.62,13.3-4.71,5.67-8.77,10.57-15.19,10.57s-16.81-1.37-25.27-5.24c-11.12-5-18-14-18-23.6,0-8.56,6.14-16.3,9.1-20l.49-.63c27.74-36,32.22-51.09,35.5-62.12a80.08,80.08,0,0,1,3.76-10.76c4.13-9.24,13.93-20.17,21.8-29,3.53-3.93,7.91-8.81,8.65-10.33a55.84,55.84,0,0,0,.65-7.47c.15-3.13.33-6.69.76-10.16a12,12,0,0,1,11.95-10.53A11.8,11.8,0,0,1,171,46c22,23.66,28.29,27.23,29.49,27.74,33.39.14,64.1,16.08,86.53,44.94,19.58,25.18,31.26,58.51,31.26,89.15,0,43.85-19.39,89.15-20.22,91.06A5,5,0,0,1,293.49,301.9Z"/><path class="cls-2" d="M162.29,47.16a6.83,6.83,0,0,1,5.06,2.24c10.34,11.13,28,29.33,32.72,29.33,70.42,0,113.23,71.66,113.23,129.1,0,43.32-19.81,89.08-19.81,89.08-.6-.15-1.3-.25-1.94-.4-16.32-3.3-40.42-4.39-76.16-4.39s-59.78,1.09-76.1,4.34c.3-17.67,7.29-28.2,16.22-39.08S212,214.62,212,189.12c0-9.53-2.54-20.16-10-20.16-9,0-12.52,20.16-37.82,29.74-13.23,5-19.32,1.25-25.26,5.29-13.92,9.48-18.31,23-26,23-6,0-15.66-1.34-23.2-4.79-10.33-4.64-15.12-12.37-15.12-19.06,0-7.34,6.39-14.82,8.53-17.57,37.08-48.1,33.49-59.73,39.88-73.9s28.79-34.53,30.59-39.62c1-3.06.75-11.27,1.67-18.73a7,7,0,0,1,7-6.16m0-10h0a17,17,0,0,0-16.9,14.91c-.45,3.65-.64,7.3-.8,10.52-.1,2-.23,4.53-.4,5.86-1.29,1.8-4.77,5.68-7.62,8.86-8.11,9-18.2,20.3-22.66,30.26a85.69,85.69,0,0,0-4,11.37c-3.17,10.65-7.5,25.24-34.67,60.5l-.45.56c-3,3.84-10.18,12.82-10.18,23.12,0,11.54,8,22.33,21,28.15,9.2,4.2,20.46,5.68,27.32,5.68,8.76,0,14-6.29,19-12.38,3.38-4.07,7.21-8.69,12.59-12.35.51-.35,2-.44,4.34-.55A56.4,56.4,0,0,0,167.72,208c17.31-6.56,26-17.39,31.7-24.56.55-.69,1.17-1.46,1.78-2.2a33.65,33.65,0,0,1,.82,7.84c0,3.92-2.2,11.09-12.67,22.95-8.2,9.28-18.66,18.28-27.06,25.5-6.49,5.58-11.61,10-14.48,13.46-9.17,11.17-18.13,23.84-18.5,45.26a10,10,0,0,0,11.93,10c14.63-2.91,36.81-4.15,74.15-4.15s59.5,1.24,74.07,4.17l1.16.23.47.09a9.61,9.61,0,0,0,2.42.3,10,10,0,0,0,9.14-6c.84-1.94,20.63-48.17,20.63-93,0-31.71-12.07-66.18-32.31-92.21-23.1-29.72-54.7-46.31-89.15-46.85-3-1.94-11.29-9.08-27.16-26.17a16.73,16.73,0,0,0-12.37-5.42Z"/><path class="cls-2" d="M166.65,106.11c8.28,0,12.1,4.25,12.1,12.1a12.53,12.53,0,0,1-12.47,12.48H149.45S151.47,106.11,166.65,106.11Z"/><path class="cls-3" d="M162.5,199.3c-12.08,4.09-17.87.85-23.56,4.69-12,8.18-16.91,19.31-23,22.25,0,0,14.22-36,19.36-37.12S150.07,200.05,162.5,199.3Z"/><path class="cls-3" d="M209.16,200.79A28.7,28.7,0,0,0,212,189.12c0-9.53-2.54-20.16-10-20.16a7.21,7.21,0,0,0-4.54,1.79c.8-1,12-15.05,17.3-25.44a1.83,1.83,0,0,1,3.44.54C219.69,155.68,220.76,176.8,209.16,200.79Z"/><path class="cls-3" d="M313.3,207.83c0,43.32-19.81,89.08-19.81,89.08-.6-.15-1.3-.25-1.94-.4-12.68-2.55-30-3.8-53.85-4.24.05-50.46,47.11-57.49,47.11-119.72,0-82.94-84.74-93.82-84.74-93.82C270.49,78.73,313.3,150.39,313.3,207.83Z"/><path class="cls-1" d="M105.36,356.34a5,5,0,0,1-5-5c0-20.27.51-33.34,7.53-43.39l.19-.28c.23-.33.44-.62.7-1l.28-.37c.39-.5.83-1.07,1.38-1.66a30.74,30.74,0,0,1,4.08-3.73c.43-.34,1-.73,1.59-1.14.42-.29.84-.56,1.29-.84l.5-.31c.55-.33,1.15-.66,1.75-1a37.46,37.46,0,0,1,4.11-1.91c.68-.27,1.32-.51,2-.76s1.26-.47,1.81-.65l.27-.09a94.21,94.21,0,0,1,10.46-2.7c15.67-3.12,38.72-4.44,77.09-4.44s61.55,1.34,77.14,4.49l1.17.24,1.58.34c2.42.52,4.68,1.18,6.16,1.63l.82.27,1.65.55c8.06,2.72,14,6.64,18.1,12a7.79,7.79,0,0,1,.77,1l.15.2c7.44,10.63,7.44,25.87,7.44,43.53a5,5,0,0,1-5,5Z"/><path class="cls-2" d="M215.39,292.12c35.74,0,59.84,1.09,76.16,4.39.89.2,1.74.35,2.59.55,2.1.45,4,1,5.84,1.54.75.25,1.55.5,2.25.75,7.53,2.55,12.57,6,16,10.48a3.28,3.28,0,0,1,.6.85h0c6.29,9,6.54,22,6.54,40.67h-220c0-18.73.37-31.71,6.74-40.69.23-.33.42-.6.66-.92.43-.55.85-1.12,1.34-1.65a26.76,26.76,0,0,1,3.44-3.15c.45-.35.94-.7,1.39-1s1-.65,1.55-1,1-.59,1.6-.89a32.15,32.15,0,0,1,3.54-1.65c.65-.25,1.3-.5,2-.75a18.88,18.88,0,0,1,1.79-.65,91.63,91.63,0,0,1,9.88-2.54c16.32-3.25,40.42-4.34,76.1-4.34M112.1,310.66h0m0,0h0m0,0h0m0,0h0m0,0h0m0,0h0m0,0h0m0,0h0m0,0h0m0,0h0m0,0h0m0,0h0m0,0h0m0,0h0m0,0h0m0,0h0m0,0h0m0,0h0m0,0h0m0,0h0m0,0h0m0,0h0m0,0h0m0,0h0m0,0h0m0,0h0m0,0h0m0,0h0m0,0h0m0,0h0m0,0h0m0,0h0m0,0h0m0,0h0m103.3-28.52c-38.72,0-62.06,1.35-78,4.53a101.07,101.07,0,0,0-11,2.83l-.09,0-.26.09c-.55.18-1.28.42-2.06.75l-1.91.72-.12,0a43.14,43.14,0,0,0-4.61,2.15c-.6.33-1.27.7-2,1.11l-.23.14-.38.24c-.43.26-.9.56-1.43.93s-1.29.89-1.84,1.32a35.23,35.23,0,0,0-4.69,4.29,25.86,25.86,0,0,0-1.66,2l-.22.29-.09.11c-.28.37-.53.72-.79,1.09l-.25.36c-7.8,11.22-8.39,25.6-8.39,46.19a10,10,0,0,0,10,10h220a10,10,0,0,0,10-10c0-18.5,0-34.48-8.34-46.39l-.16-.23a14.16,14.16,0,0,0-1-1.31c-4.69-6-11.36-10.45-20.37-13.5l-1.66-.56-.7-.23-.23-.07c-1.55-.47-3.91-1.17-6.58-1.74-.53-.13-1.07-.24-1.62-.35l-1-.21-.19,0c-16.15-3.25-38.78-4.58-78.13-4.58Z"/></g></svg>