<svg xmlns="http://www.w3.org/2000/svg" viewBox="0 0 400 400"><defs><style>.cls-1{fill:#575452;}.cls-2{fill:#312e2b;}.cls-3{fill:#797675;}.cls-4{fill:#464342;}</style></defs><g id="Layer_1" data-name="Layer 1"><path class="cls-1" d="M98.13,356.39v-5c0-33.94,17.44-46.46,34.31-58.57,17.8-12.78,36.19-26,37.55-67.12H153.27a10.79,10.79,0,0,1-9.69-6,49.2,49.2,0,0,1-2.7-7.1,10.83,10.83,0,0,1,3.93-11.75l23.08-16.95a50.4,50.4,0,1,1,64.61,0l23.08,16.93a10.81,10.81,0,0,1,3.93,11.73,44.3,44.3,0,0,1-2.64,7.09,10.82,10.82,0,0,1-9.72,6.09H230.43c1.37,41.14,19.74,54.34,37.53,67.12,16.85,12.11,34.28,24.63,34.28,58.57v5Z"/><path class="cls-2" d="M200.19,99.83a45.37,45.37,0,0,1,23.83,84l28.62,21a5.77,5.77,0,0,1,2.09,6.29,40.57,40.57,0,0,1-2.34,6.33,5.87,5.87,0,0,1-5.24,3.29H225.36c0,89.09,71.9,63.22,71.9,130.67H103.12c0-67.45,71.94-41.58,71.94-130.67H153.27a5.87,5.87,0,0,1-5.23-3.29,44.3,44.3,0,0,1-2.39-6.33,5.8,5.8,0,0,1,2.14-6.29l28.57-21a45.39,45.39,0,0,1,23.83-84m0-10a55.39,55.39,0,0,0-40.1,93.55l-18.2,13.38,0,0h0A15.81,15.81,0,0,0,136.09,214V214l0,0a53.41,53.41,0,0,0,3,7.77l0,0,0,.05a15.77,15.77,0,0,0,14.15,8.8h11.47c-2.52,34.61-18.44,46-35.21,58.08-17,12.24-36.38,26.12-36.38,62.62v10H307.23v-10c0-36.5-19.32-50.38-36.36-62.62-16.76-12-32.67-23.47-35.19-58.08h11.47a15.77,15.77,0,0,0,14.16-8.8l0-.05,0,0a50,50,0,0,0,3-7.94,15.81,15.81,0,0,0-5.72-17.05l0,0,0,0-18.22-13.36a55.38,55.38,0,0,0-40.12-93.56Z"/><path class="cls-3" d="M207.07,100.33s-22.79,3-36.65,23.68c-13.11,19.64-9.52,42.23-9.12,44.47a44.52,44.52,0,0,1-6.48-23.28,45.34,45.34,0,0,1,45.37-45.37A51.93,51.93,0,0,1,207.07,100.33Z"/><path class="cls-4" d="M275.27,304.54l-7.43-1.45a86.13,86.13,0,0,1-42.43-21.94L174.56,233c.35-3.84.5-7.92.5-12.31H153.27a5.87,5.87,0,0,1-5.23-3.29c-.5-1-.9-2-1.3-3a24,24,0,0,0,9.08,1.89h72.29a8.15,8.15,0,0,0,5.73-13.91l-5.68-5.73A38.58,38.58,0,0,0,201,185.43s42.47-13.26,42.47-47a46.44,46.44,0,0,0-1-9.87,44.73,44.73,0,0,1,3.14,16.6A45.29,45.29,0,0,1,224,183.84l28.62,21a5.77,5.77,0,0,1,2.09,6.29,40.57,40.57,0,0,1-2.34,6.33,5.87,5.87,0,0,1-5.24,3.29H225.36C225.36,277.07,254.13,287.44,275.27,304.54Z"/><path class="cls-3" d="M174.56,233c0,96.07-69.25,68.8-71.39,116.07C104.71,287.73,168.23,306.58,174.56,233Z"/><path class="cls-3" d="M176.36,183.84l-7,15.1a17.64,17.64,0,0,1-12.27,9.77l-11.46,2.4a5.8,5.8,0,0,1,2.14-6.29Z"/></g></svg>