<svg xmlns="http://www.w3.org/2000/svg" viewBox="0 0 400 400"><defs><style>.cls-1{fill:#f9f9f9;}.cls-2{fill:#575452;}.cls-3{fill:#d4d4d4;}</style></defs><g id="Layer_1" data-name="Layer 1"><path class="cls-1" d="M102.84,356.34a5,5,0,0,1-5-5c0-34,17.46-46.5,34.34-58.62,17.82-12.8,36.22-26,37.59-67.18H153a10.82,10.82,0,0,1-9.7-6.05,49.2,49.2,0,0,1-2.7-7.1,10.81,10.81,0,0,1,3.94-11.76l23.09-17a50.45,50.45,0,1,1,64.67,0l23.11,17a10.83,10.83,0,0,1,3.93,11.73,43.58,43.58,0,0,1-2.65,7.1,10.83,10.83,0,0,1-9.72,6.1H230.27c1.37,41.18,19.76,54.39,37.56,67.18,16.88,12.12,34.32,24.65,34.32,58.62a5,5,0,0,1-5,5Z"/><path class="cls-2" d="M200,99.55a45.41,45.41,0,0,1,23.85,84.08l28.65,21a5.77,5.77,0,0,1,2.09,6.29,39.33,39.33,0,0,1-2.34,6.34,5.88,5.88,0,0,1-5.24,3.29H225.2c0,89.18,72,63.28,72,130.79H102.84c0-67.51,72-41.61,72-130.79H153a5.88,5.88,0,0,1-5.24-3.29,45.17,45.17,0,0,1-2.39-6.34,5.8,5.8,0,0,1,2.14-6.29l28.6-21A45.43,45.43,0,0,1,200,99.55m0-10a55.44,55.44,0,0,0-40.13,93.64L141.64,196.6l0,0a15.83,15.83,0,0,0-5.76,17.15l0,.08a53.13,53.13,0,0,0,3,7.78l0,.09A15.77,15.77,0,0,0,153,230.54h11.48c-2.52,34.65-18.46,46.08-35.24,58.13-17.07,12.26-36.42,26.15-36.42,62.68a10,10,0,0,0,10,10H297.16a10,10,0,0,0,10-10c0-36.53-19.33-50.42-36.39-62.68-16.78-12.05-32.7-23.48-35.22-58.13H247a15.8,15.8,0,0,0,14.17-8.81l0-.09a50,50,0,0,0,3-7.94,15.8,15.8,0,0,0-5.73-17.07l-.05,0-18.24-13.38A55.43,55.43,0,0,0,200,89.57Z"/><path class="cls-3" d="M275.15,304.45,267.72,303a86.17,86.17,0,0,1-42.47-22l-50.9-48.15c.35-3.85.5-7.94.5-12.33H153a5.88,5.88,0,0,1-5.24-3.29,32.85,32.85,0,0,1-1.3-3.05,23.94,23.94,0,0,0,9.09,1.9H228a8.16,8.16,0,0,0,5.73-13.92L228,196.46a38.62,38.62,0,0,0-27.2-11.23s42.52-13.28,42.52-47a45.86,45.86,0,0,0-1-9.88,45.44,45.44,0,0,1-18.47,55.29l28.65,21a5.77,5.77,0,0,1,2.09,6.29,39.33,39.33,0,0,1-2.34,6.34,5.88,5.88,0,0,1-5.24,3.29H225.2C225.2,277,254,287.33,275.15,304.45Z"/></g></svg>