<svg xmlns="http://www.w3.org/2000/svg" viewBox="0 0 400 400"><defs><style>.cls-1{fill:#575452;}.cls-2{fill:#312e2b;}.cls-3{fill:#464342;}.cls-4{fill:#797675;}</style></defs><g id="Layer_1" data-name="Layer 1"><path class="cls-1" d="M275.14,305.6c-14.91-3-37.39-4.29-75.17-4.29s-60.15,1.27-75.12,4.24l-6.64,1.32,15.63-151.08h4.51A128.64,128.64,0,0,0,154,154.56,363.19,363.19,0,0,1,200,151.8a363.14,363.14,0,0,1,46,2.76,128.33,128.33,0,0,0,15.65,1.23h4.5l15.69,151.15Z"/><path class="cls-2" d="M200,156.79c38.07.2,47.3,4,61.62,4l14.53,139.93c-16.32-3.3-40.42-4.39-76.15-4.39s-59.79,1.09-76.11,4.34l14.48-139.88c14.32,0,23.6-3.79,61.63-4m0-10h-.06a368.44,368.44,0,0,0-46.49,2.79,125.14,125.14,0,0,1-15.08,1.2h-9l-.92,8.95L114,299.63l-1.4,13.45,13.27-2.63c14.63-2.91,36.81-4.15,74.16-4.15s59.61,1.25,74.17,4.19l13.3,2.69-1.4-13.5L271.53,159.75l-.93-8.95h-9a122.07,122.07,0,0,1-15.06-1.2A368.11,368.11,0,0,0,200,146.81Z"/><path class="cls-3" d="M276.14,300.71a198.62,198.62,0,0,0-25.85-3.15s.25-72.45-28.85-106.54-84.18-19.71-84.18-19.71l1.1-10.53c14.32,0,23.6-3.79,61.63-4,38.07.2,47.3,4,61.62,4Z"/><path class="cls-1" d="M85,360.54v-5c0-31.42,0-52.17,37.89-59.78,15.66-3.12,38.71-4.44,77.08-4.44s61.55,1.34,77.14,4.49C315,303.37,315,324.13,315,355.55v5Z"/><path class="cls-2" d="M200,296.32c35.73,0,59.83,1.09,76.15,4.39,33,6.59,33.88,22,33.88,54.84H90c0-32.84.85-48.25,33.88-54.89,16.32-3.25,40.42-4.34,76.11-4.34m0-10c-38.73,0-62.07,1.35-78,4.53-19.18,3.85-30.38,10.94-36.33,23C80.4,324.38,80,337.2,80,355.55v10H320v-10c0-18.35-.39-31.17-5.59-41.69-5.95-12-17.15-19.12-36.32-22.94-16.13-3.25-38.76-4.58-78.1-4.58Z"/><path class="cls-4" d="M303.43,314.88S273,308.44,200,308.44s-103.4,6.44-103.4,6.44c4.74-6.84,13-11.38,27.3-14.22,16.31-3.25,40.42-4.34,76.1-4.34s59.83,1.09,76.15,4.39C290.41,303.55,298.69,308,303.43,314.88Z"/><path class="cls-1" d="M261.6,165.77a135.3,135.3,0,0,1-16.82-1.3A355.07,355.07,0,0,0,200,161.78a348.79,348.79,0,0,0-44.76,2.69,135.76,135.76,0,0,1-16.84,1.3c-27.53,0-32.66-25.27-32.84-75a11.31,11.31,0,0,1,5.18-9.6c5.3-3.42,13.35-5.3,23.93-5.59h.23a8.54,8.54,0,0,1,8.23,6.33l8.09,30.21a50.51,50.51,0,0,0,9.33.91,60,60,0,0,0,9.73-.88l3.47-34.61A7.57,7.57,0,0,1,179.12,71c4-1.15,11-1.74,20.85-1.74s16.91.59,20.89,1.74a7.57,7.57,0,0,1,5.44,6.55l3.43,34.59a60.37,60.37,0,0,0,9.77.89,50.7,50.7,0,0,0,9.33-.91l8-30.2a8.54,8.54,0,0,1,8.23-6.34h.23c10.58.29,18.65,2.17,24,5.59a11.31,11.31,0,0,1,5.2,9.61C294.31,140.5,289.17,165.77,261.6,165.77Z"/><path class="cls-2" d="M200,74.2c11.89,0,17.18.88,19.49,1.55A2.58,2.58,0,0,1,221.33,78l3.8,38.28A68.13,68.13,0,0,0,239.5,118a53.78,53.78,0,0,0,13.37-1.69l8.82-33.12a3.57,3.57,0,0,1,3.41-2.63h.1c12,.33,18.27,2.79,21.4,4.8a6.42,6.42,0,0,1,2.9,5.39c-.19,51.45-5.82,70.06-27.9,70.06-14.32,0-23.55-3.79-61.62-4-38,.2-47.31,4-61.63,4-22.08,0-27.66-18.61-27.85-70.07a6.44,6.44,0,0,1,2.89-5.39c3.12-2,9.36-4.46,21.37-4.79h.09a3.57,3.57,0,0,1,3.41,2.63l8.87,33.12A53.78,53.78,0,0,0,160.5,118a67.35,67.35,0,0,0,14.32-1.69L178.67,78a2.58,2.58,0,0,1,1.85-2.25c2.3-.67,7.57-1.54,19.46-1.54m0-10c-10.49,0-17.77.63-22.25,1.94a12.51,12.51,0,0,0-9,10.83l-3.09,30.7a49,49,0,0,1-5.15.29,44.88,44.88,0,0,1-5.35-.33L147.9,80.57a13.54,13.54,0,0,0-13.05-10h-.36C123,70.87,114.06,73,108,76.94a16.27,16.27,0,0,0-7.46,13.81c.11,29.37,2,46.12,6.36,57.81,5.55,14.73,16.14,22.2,31.47,22.2a141.58,141.58,0,0,0,17.43-1.34,347.53,347.53,0,0,1,44.2-2.65,344.82,344.82,0,0,1,44.21,2.66,143.07,143.07,0,0,0,17.41,1.33c15.33,0,25.93-7.46,31.49-22.19,4.43-11.71,6.28-28.46,6.39-57.81A16.26,16.26,0,0,0,292,76.94c-6.09-3.92-15-6.07-26.52-6.39h-.37a13.52,13.52,0,0,0-13.05,10l-7.21,27.06a44.7,44.7,0,0,1-5.34.33,49.94,49.94,0,0,1-5.19-.29L231.26,77a12.52,12.52,0,0,0-9-10.85c-4.5-1.31-11.78-1.94-22.27-1.94Z"/><path class="cls-4" d="M117.05,147.11c-4.79-10.93-6.44-29-6.54-56.41a6.24,6.24,0,0,1,2.64-5.2c2.89-2,8.71-4.39,20-4.91C133.12,80.59,114.6,87.27,117.05,147.11Z"/><path class="cls-4" d="M202.73,74.25c-1.1.65-18.41,12-26.9,31.89L178.68,78a2.58,2.58,0,0,1,1.85-2.24c2.3-.67,7.57-1.54,19.46-1.54C200.93,74.2,201.83,74.2,202.73,74.25Z"/><path class="cls-4" d="M276.24,86c-9.83,6-19.22,16.76-20,17.61l5.43-20.44a3.52,3.52,0,0,1,3.48-2.62,67.34,67.34,0,0,1,10.95,1.11C276.14,82,276.19,83.53,276.24,86Z"/><path class="cls-3" d="M289.51,88c0,53.5-5.44,72.76-27.9,72.76a129,129,0,0,1-16-1.25,39.51,39.51,0,0,0,16.51-12.27c13.28-16.67,14.23-49.41,14.13-61.28a33.24,33.24,0,0,1,5.69-2.85c4.29,1.5,6.23,3.25,7.08,4.19a5.74,5.74,0,0,0,.4.5A.55.55,0,0,0,289.51,88Z"/></g></svg>